<svg width="433" height="1215" viewBox="0 0 433 1215" fill="none" xmlns="http://www.w3.org/2000/svg">
<path d="M974.948 607.419V607.31C973.895 583.457 993.46 559.421 979.449 536.695C972.298 524.477 958.431 519.241 953.095 505.496C941.189 480.842 982.498 448.625 948.848 431.426C930.372 424.554 889.68 434.19 895.271 402.227C897.884 389.646 908.229 376.592 910.698 363.356C914.509 349.429 902.095 334.121 887.575 337.139C869.498 339.393 852.038 356.556 833.707 357.065C794.975 349.684 849.787 285.068 820.349 266.123C789.168 250.087 760.636 329.903 735.045 299.867C726.261 283.868 732.468 260.051 725.317 243.251C720.634 229.034 701.178 226.016 691.087 236.342C681.177 244.851 674.607 260.669 665.242 269.25C640.304 289.94 628.398 249.942 613.152 237.47C584.584 218.852 575.546 258.887 555.363 268.45C541.316 275.105 526.869 267.141 513.873 264.123C483.854 257.251 470.278 290.195 448.099 302.631L447.99 302.704C428.243 315.103 396.844 310.885 384.72 334.121C377.678 346.484 380.11 360.992 370.963 372.592C360.872 387.137 342.25 384.046 327.222 388.009C301.559 395.355 307.983 421.026 319.2 438.408C333.756 464.552 316.478 477.752 290.197 477.133C268.78 475.97 242.137 489.824 257.963 513.496C269.325 530.295 302.974 536.04 304.136 559.094C295.242 587.566 235.276 573.712 230.267 607.383C235.276 641.018 295.242 627.2 304.136 655.672C302.974 678.726 269.325 684.471 257.963 701.27C242.1 725.088 268.853 738.76 290.233 737.633C316.441 737.124 333.829 749.923 319.236 776.359C308.02 793.958 301.522 819.157 327.258 826.757C339.6 830.32 354.011 828.066 364.865 836.029C377.315 844.938 378.041 860.901 381.816 874.282C390.564 903.336 426.392 899.299 447.99 912.099L448.099 912.172C460.84 918.644 467.918 929.88 478.01 939.334C510.969 972.242 542.405 920.717 569.92 959.006C578.123 970.751 589.267 985.442 605.384 981.224C628.325 974.897 635.839 922.389 665.205 945.552C674.534 954.097 681.104 969.951 691.05 978.46C701.142 988.787 720.634 985.696 725.281 971.551C732.432 954.788 726.225 930.971 735.009 914.935C760.636 884.864 789.131 964.715 820.312 948.679C849.715 929.771 794.939 865.119 833.671 857.737C851.965 858.21 869.425 875.373 887.539 877.664C902.095 880.682 914.437 865.373 910.661 851.447C908.193 838.247 897.884 825.157 895.234 812.575C889.644 780.613 930.445 790.176 948.812 783.376C982.498 766.213 941.117 733.924 953.059 709.307C958.395 695.562 972.225 690.362 979.412 678.108C993.424 655.381 973.859 631.273 974.911 607.492L974.948 607.419Z" stroke="#3AB7A8" stroke-miterlimit="10"/>
<path d="M999.776 607.418V607.272C998.651 581.819 1019.27 556.329 1004.6 531.893C996.836 518.912 982.171 513.276 976.472 498.585C963.767 472.259 1007.87 437.86 971.935 419.534C952.224 412.189 908.193 422.37 914.727 388.335C917.304 374.881 928.557 360.954 931.17 346.846C935.236 331.973 921.987 315.61 906.487 318.847C887.176 321.283 868.518 339.573 848.989 340.119C807.644 332.228 866.122 263.249 834.723 243.031C801.437 225.905 770.982 311.138 743.648 279.03C734.283 261.94 740.889 236.523 733.266 218.596C728.293 203.433 707.494 200.197 696.713 211.214C686.114 220.305 679.108 237.177 669.126 246.34C642.482 268.449 629.813 225.723 613.515 212.414C583.024 192.561 573.368 235.286 551.842 245.468C536.851 252.558 521.424 244.05 507.521 240.85C475.469 233.504 460.985 268.703 437.318 281.975L437.209 282.048C416.119 295.284 382.615 290.775 369.692 315.61C362.178 328.81 364.792 344.3 354.991 356.663C344.21 372.19 324.282 368.736 308.31 373.136C280.832 380.699 287.765 408.407 299.743 426.915C315.28 454.842 296.84 469.35 268.78 468.259C245.875 467.35 217.38 481.859 234.332 507.094C246.42 525.057 282.356 531.166 283.627 555.747C274.116 586.146 210.12 571.383 204.784 607.272C210.12 643.162 274.152 628.435 283.627 658.798C282.392 683.378 246.42 689.487 234.332 707.45C217.308 732.795 245.948 747.085 268.78 746.285C296.731 745.303 315.316 759.412 299.743 787.629C287.765 806.428 280.832 833.409 308.31 841.409C321.487 845.227 336.805 842.863 348.457 851.299C361.706 860.863 362.396 877.917 366.571 892.134C375.645 923.224 414.159 918.824 437.209 932.533L437.318 932.606C450.93 939.514 458.48 951.478 469.261 961.623C504.435 996.749 538.266 941.551 567.378 982.604C576.235 995.076 588.069 1010.93 605.239 1006.31C629.777 999.73 637.727 943.514 669.126 968.241C679.108 977.367 686.114 994.276 696.713 1003.37C707.494 1014.42 728.293 1011.11 733.266 995.985C740.889 978.058 734.283 952.641 743.648 935.551C770.982 903.443 801.437 988.676 834.723 971.549C866.122 951.368 807.608 882.353 848.989 874.462C868.518 874.971 887.176 893.298 906.487 895.734C922.023 898.97 935.2 882.607 931.17 867.735C928.557 853.627 917.304 839.736 914.727 826.246C908.193 792.247 952.297 802.356 971.935 795.047C1007.87 776.72 963.731 742.249 976.472 715.995C982.171 701.305 996.8 695.669 1004.6 682.688C1019.31 658.252 998.687 632.689 999.776 607.309V607.418Z" stroke="#3AB7A8" stroke-miterlimit="10"/>
<path d="M1024.61 607.419V607.273C1023.41 580.184 1045.33 553.094 1029.72 527.131C1021.45 513.35 1005.87 507.35 999.813 491.714C986.273 463.715 1033.21 427.135 994.985 407.645C974.004 399.863 927.214 410.663 934.147 374.482C936.906 360.155 948.848 345.356 951.644 330.375C955.999 314.557 941.879 297.176 925.399 300.63C904.89 303.212 885.034 322.666 864.271 323.248C820.276 314.848 882.493 241.505 849.134 220.015C813.742 201.798 781.363 292.413 752.288 258.305C742.342 240.124 749.384 213.106 741.253 194.053C735.953 177.944 713.847 174.49 702.376 186.198C691.123 195.834 683.682 213.834 673.046 223.542C644.733 247.032 631.229 201.616 613.915 187.471C581.499 166.345 571.226 211.797 548.322 222.633C532.386 230.16 515.979 221.142 501.205 217.724C467.12 209.907 451.729 247.323 426.537 261.468L426.428 261.541C403.995 275.613 368.35 270.85 354.628 297.212C346.606 311.248 349.401 327.72 339.02 340.883C327.549 357.392 306.35 353.719 289.362 358.41C260.141 366.446 267.51 395.9 280.251 415.608C296.804 445.279 277.166 460.733 247.328 459.57C222.971 458.624 192.697 474.042 210.701 500.841C223.551 519.931 261.775 526.44 263.081 552.585C252.99 584.911 184.929 569.202 179.23 607.382C184.893 645.563 252.99 629.891 263.081 662.18C261.775 688.325 223.515 694.834 210.701 713.924C192.588 740.868 223.08 756.068 247.328 755.231C277.057 754.177 296.84 769.195 280.251 799.193C267.51 819.193 260.141 847.882 289.362 856.391C303.374 860.464 319.672 857.955 332.05 866.9C346.134 877.081 346.897 895.19 351.325 910.317C360.981 943.37 401.926 938.679 426.465 953.26L426.574 953.333C441.057 960.678 449.079 973.405 460.55 984.168C497.938 1021.51 533.911 962.824 564.874 1006.49C574.276 1019.77 586.872 1036.64 605.13 1031.73C631.193 1024.71 639.687 964.969 673.046 991.259C683.646 1000.97 691.123 1018.97 702.376 1028.6C713.81 1040.35 735.953 1036.82 741.253 1020.75C749.384 1001.69 742.342 974.678 752.288 956.497C781.363 922.352 813.706 1013 849.134 994.786C882.53 973.332 820.313 899.917 864.307 891.554C885.107 892.099 904.926 911.589 925.435 914.171C941.952 917.625 955.963 900.208 951.68 884.427C948.885 869.445 936.942 854.646 934.184 840.319C927.25 804.175 974.149 814.902 995.021 807.157C1033.24 787.667 986.309 751.013 999.849 723.087C1005.87 707.488 1021.45 701.452 1029.76 687.67C1045.37 661.671 1023.48 634.509 1024.64 607.528L1024.61 607.419Z" stroke="#3AB7A8" stroke-miterlimit="10"/>
<path d="M1049.43 607.455V607.31C1048.16 578.62 1071.4 549.93 1054.88 522.404C1046.13 507.786 1029.61 501.423 1023.19 484.878C1008.85 455.207 1058.55 416.444 1018.07 395.791C995.856 387.536 946.271 398.99 953.604 360.665C956.508 345.502 969.212 329.829 972.153 313.939C976.763 297.176 961.807 278.777 944.348 282.413C922.604 285.14 901.587 305.758 879.589 306.376C832.981 297.467 898.901 219.761 863.545 196.998C826.048 177.69 791.709 273.722 760.927 237.578C750.364 218.306 757.841 189.689 749.239 169.508C743.612 152.418 720.199 148.782 708.039 161.181C696.096 171.399 688.219 190.453 676.967 200.743C646.947 225.652 632.681 177.544 614.314 162.527C579.975 140.164 569.085 188.308 544.837 199.798C527.921 207.798 510.57 198.198 494.925 194.598C458.808 186.308 442.509 225.979 415.829 240.924L415.684 240.996C391.944 255.905 354.157 250.851 339.601 278.813C331.106 293.685 334.047 311.139 323.048 325.066C310.924 342.556 288.455 338.665 270.45 343.611C239.487 352.156 247.291 383.318 260.795 404.227C278.327 435.68 257.528 452.043 225.911 450.807C200.138 449.789 168.014 466.152 187.107 494.551C200.719 514.804 241.229 521.64 242.609 549.385C231.9 583.602 159.81 566.984 153.784 607.455C159.81 647.89 231.937 631.309 242.609 665.526C241.229 693.234 200.683 700.106 187.107 720.36C167.941 748.941 200.211 765.013 225.911 764.104C257.419 762.977 278.364 778.867 260.795 810.648C247.291 831.811 239.487 862.246 270.45 871.264C285.297 875.591 302.575 872.9 315.679 882.39C330.598 893.19 331.397 912.353 336.079 928.389C346.316 963.406 389.694 958.46 415.684 973.878L415.829 973.951C431.147 981.732 439.678 995.223 451.802 1006.64C491.441 1046.2 529.519 984.023 562.333 1030.28C572.316 1044.31 585.637 1062.2 604.985 1057C632.609 1049.58 641.611 986.241 676.967 1014.13C688.219 1024.42 696.096 1043.48 708.039 1053.69C720.163 1066.13 743.612 1062.42 749.239 1045.37C757.841 1025.19 750.4 996.532 760.927 977.296C791.745 941.152 826.012 1037.15 863.545 1017.88C898.901 995.15 833.017 917.371 879.589 908.499C901.623 909.08 922.604 929.698 944.348 932.461C961.844 936.098 976.69 917.698 972.153 900.935C969.212 885.045 956.544 869.373 953.604 854.21C946.235 815.92 995.929 827.302 1018.07 819.084C1058.58 798.43 1008.82 759.595 1023.19 729.996C1029.58 713.451 1046.09 707.088 1054.88 692.47C1071.43 664.944 1048.2 636.145 1049.43 607.564V607.455Z" stroke="#3AB7A8" stroke-miterlimit="10"/>
<path d="M1074.26 607.456V607.31C1072.92 577.02 1097.46 546.694 1080 517.641C1070.74 502.223 1053.32 495.496 1046.53 478.006C1031.39 446.662 1083.88 405.754 1041.16 383.937C1017.71 375.21 965.328 387.282 973.096 346.847C976.182 330.811 989.576 314.267 992.662 297.504C997.526 279.795 981.736 260.341 963.296 264.196C940.354 267.068 918.139 288.886 894.871 289.504C845.649 280.122 915.272 198.016 877.92 173.981C838.317 153.582 802.054 254.996 769.566 216.816C758.422 196.489 766.299 166.236 757.224 144.928C751.308 126.892 726.551 123.037 713.738 136.128C701.142 146.927 692.793 167.036 680.923 177.908C649.234 204.198 634.133 153.4 614.749 137.546C578.45 113.911 566.979 164.745 541.352 176.89C523.493 185.326 505.162 175.217 488.646 171.399C450.495 162.636 433.289 204.525 405.121 220.343L404.976 220.416C379.893 236.16 340 230.815 324.609 260.341C315.643 276.05 318.765 294.486 307.113 309.212C294.299 327.684 270.559 323.575 251.538 328.812C218.869 337.829 227.109 370.774 241.338 392.809C259.851 426.008 237.853 443.316 204.494 442.007C177.27 440.953 143.33 458.188 163.512 488.224C177.887 509.605 220.684 516.841 222.136 546.149C210.847 582.293 134.691 564.73 128.302 607.456C134.654 650.181 210.847 632.618 222.136 668.799C220.684 698.07 177.851 705.343 163.512 726.687C143.257 756.868 177.342 773.849 204.494 772.904C237.744 771.74 259.887 788.503 241.338 822.066C227.072 844.429 218.833 876.536 251.538 886.063C267.22 890.609 285.442 887.809 299.308 897.808C315.062 909.19 315.897 929.443 320.87 946.388C331.687 983.369 377.497 978.133 404.939 994.423L405.084 994.496C421.274 1002.71 430.24 1016.97 443.09 1029C484.943 1070.78 525.199 1005.15 559.829 1053.98C570.355 1068.82 584.439 1087.69 604.876 1082.2C634.061 1074.35 643.535 1007.48 680.887 1036.93C692.757 1047.8 701.106 1067.91 713.701 1078.71C726.515 1091.84 751.308 1087.91 757.188 1069.91C766.263 1048.6 758.386 1018.35 769.53 998.023C802.054 959.842 838.281 1061.26 877.883 1040.86C915.235 1016.86 845.65 934.716 894.835 925.335C918.103 925.953 940.282 947.734 963.259 950.643C981.772 954.497 997.417 935.043 992.626 917.335C989.504 900.572 976.109 884.027 973.06 867.991C965.292 827.52 1017.78 839.556 1041.12 830.865C1083.88 809.048 1031.36 768.031 1046.53 736.796C1053.28 719.342 1070.71 712.615 1080 697.161C1097.46 668.071 1072.96 637.673 1074.26 607.492V607.456Z" stroke="#3AB7A8" stroke-miterlimit="10"/>
<path d="M1099.09 607.455V607.273C1097.68 575.383 1123.52 543.421 1105.15 512.804C1095.39 496.55 1077.02 489.495 1069.91 471.06C1053.97 438.079 1109.25 394.953 1064.24 371.972C1039.52 362.773 984.385 375.5 992.553 332.883C995.783 316.011 1009.9 298.557 1013.17 280.921C1018.29 262.304 1001.66 241.796 982.243 245.868C958.068 248.886 934.691 271.867 910.189 272.522C858.354 262.631 931.678 176.198 892.33 150.853C850.622 129.363 812.435 236.196 778.205 195.979C766.48 174.562 774.756 142.708 765.173 120.273C758.93 101.255 732.867 97.2191 719.364 111C706.078 122.382 697.33 143.545 684.807 154.999C651.411 182.707 635.548 129.182 615.112 112.491C576.889 87.6195 564.801 141.145 537.831 153.944C519.028 162.817 499.716 152.163 482.293 148.163C442.109 138.963 423.996 183.07 394.303 199.688L394.158 199.761C367.732 216.342 325.734 210.706 309.544 241.796C300.106 258.34 303.373 277.758 291.14 293.248C277.637 312.702 252.663 308.375 232.626 313.902C198.214 323.392 206.89 358.082 221.881 381.318C241.374 416.298 218.215 434.479 183.077 433.097C154.401 431.97 118.682 450.151 139.917 481.75C155.054 504.258 200.102 511.894 201.663 542.73C189.756 580.801 109.571 562.293 102.856 607.309C109.535 652.289 189.793 633.817 201.663 671.889C200.138 702.724 155.018 710.36 139.917 732.868C118.573 764.649 154.473 782.539 183.077 781.521C218.106 780.284 241.41 797.957 221.881 833.301C206.853 856.863 198.178 890.68 232.626 900.716C249.142 905.516 268.344 902.534 282.937 913.116C299.526 925.115 300.433 946.46 305.624 964.278C317.022 1003.22 365.264 997.731 394.158 1014.89L394.303 1014.97C411.364 1023.62 420.802 1038.64 434.341 1051.33C478.409 1095.33 520.806 1026.2 557.287 1077.62C568.358 1093.25 583.241 1113.11 604.73 1107.33C635.476 1099.07 645.458 1028.64 684.77 1059.62C697.257 1071.07 706.042 1092.27 719.327 1103.62C732.831 1117.47 758.93 1113.33 765.137 1094.35C774.72 1071.91 766.408 1040.06 778.169 1018.6C812.435 978.386 850.55 1085.18 892.294 1063.73C931.642 1038.46 858.354 951.951 910.153 942.06C934.655 942.715 957.996 965.659 982.207 968.714C1001.7 972.75 1018.18 952.278 1013.13 933.661C1009.87 915.988 995.747 898.571 992.516 881.699C984.349 839.082 1039.6 851.736 1064.21 842.609C1109.25 819.665 1053.93 776.43 1069.87 743.522C1076.98 725.123 1095.35 718.032 1105.12 701.778C1123.52 671.161 1097.71 639.126 1099.09 607.309V607.455Z" stroke="#3AB7A8" stroke-miterlimit="10"/>
<path d="M1123.92 607.454V607.272C1122.43 573.746 1149.55 540.22 1130.27 508.04C1120.04 490.986 1100.73 483.532 1093.25 464.187C1076.51 429.534 1134.56 384.226 1087.29 360.118C1061.34 350.482 1003.41 363.827 1011.97 319.065C1015.39 301.32 1030.2 283.03 1033.64 264.449C1039.02 244.886 1021.56 223.36 1001.16 227.614C975.747 230.814 951.208 254.922 925.472 255.613C871.023 245.213 948.05 154.417 906.706 127.799C862.892 105.255 822.781 217.432 786.809 175.216C774.467 152.708 783.179 119.254 773.124 95.6552C766.554 75.6924 739.184 71.438 724.991 85.9102C711.052 97.8734 701.832 120.091 688.692 132.127C653.627 161.216 636.929 105 615.476 87.4737C575.329 61.3293 562.624 117.582 534.274 130.999C514.527 140.344 494.236 129.145 475.941 124.927C433.725 115.255 414.704 161.58 383.523 179.07L383.378 179.143C355.609 196.561 311.505 190.67 294.481 223.323C284.571 240.704 288.02 261.104 275.133 277.394C260.94 297.829 234.696 293.284 213.678 299.066C177.524 309.029 186.635 345.464 202.389 369.863C222.862 406.589 198.542 425.716 161.625 424.261C131.497 423.061 93.9632 442.188 116.287 475.386C132.186 499.022 179.521 507.058 181.154 539.457C168.667 579.455 84.3802 560.038 77.3381 607.309C84.3439 654.58 168.631 635.162 181.154 675.161C179.521 707.523 132.15 715.596 116.287 739.231C93.8906 772.612 131.606 791.411 161.625 790.356C198.433 789.047 222.898 807.628 202.389 844.754C186.599 869.481 177.488 905.043 213.678 915.552C231.03 920.606 251.212 917.479 266.53 928.569C283.954 941.187 284.898 963.586 290.379 982.313C302.358 1023.22 352.995 1017.44 383.378 1035.47L383.523 1035.55C401.455 1044.64 411.365 1060.42 425.558 1073.73C471.876 1119.98 516.379 1047.33 554.711 1101.36C566.363 1117.8 581.972 1138.67 604.55 1132.6C636.82 1123.91 647.347 1049.91 688.655 1082.49C701.796 1094.53 711.016 1116.78 724.955 1128.71C739.148 1143.25 766.554 1138.89 773.088 1119C783.143 1095.44 774.431 1061.95 786.772 1039.44C822.781 997.185 862.82 1109.4 906.669 1086.85C947.978 1060.27 870.987 969.404 925.436 959.041C951.172 959.732 975.71 983.84 1001.12 987.04C1021.59 991.294 1038.91 969.768 1033.61 950.205C1030.16 931.66 1015.35 913.334 1011.94 895.589C1003.33 850.827 1061.41 864.135 1087.26 854.536C1134.59 830.428 1076.44 785.011 1093.21 750.467C1100.69 731.122 1119.96 723.704 1130.24 706.614C1149.58 674.434 1122.43 640.798 1123.88 607.381L1123.92 607.454Z" stroke="#3AB7A8" stroke-miterlimit="10"/>
<path d="M1148.75 607.455V607.273C1147.19 572.147 1175.61 536.985 1155.39 503.277C1144.65 485.387 1124.43 477.605 1116.59 457.352C1099.06 421.026 1159.89 373.573 1110.34 348.265C1083.16 338.156 1022.43 352.156 1031.43 305.248C1034.99 286.667 1050.52 267.468 1054.12 248.014C1059.74 227.506 1041.45 204.961 1020.07 209.397C993.46 212.743 967.688 238.014 940.754 238.742C883.691 227.869 964.421 132.673 921.079 104.783C875.161 81.1476 833.126 198.743 795.411 154.454C782.489 130.855 791.636 95.8016 781.073 71.0752C774.212 50.1669 745.536 45.6944 730.617 60.8938C715.988 73.4024 706.333 96.747 692.575 109.328C655.84 139.836 638.344 80.893 615.875 62.5301C573.804 35.1129 560.482 94.0925 530.789 108.165C510.098 117.946 488.827 106.201 469.661 101.801C425.412 91.6563 405.484 140.236 372.814 158.526L372.669 158.636C343.593 176.889 297.312 170.708 279.489 204.925C269.107 223.106 272.701 244.523 259.234 261.577C244.387 282.995 216.872 278.231 194.802 284.304C156.906 294.74 166.453 332.956 182.969 358.519C204.422 397.027 178.94 417.062 140.244 415.535C108.664 414.299 69.3519 434.298 92.7287 469.097C109.39 493.896 159.011 502.295 160.717 536.258C147.613 578.183 59.297 557.821 51.9282 607.382C59.297 656.908 147.613 636.581 160.717 678.507C159.011 712.433 109.354 720.869 92.7287 745.632C69.243 780.612 108.773 800.321 140.244 799.193C178.831 797.812 204.458 817.302 182.969 856.209C166.416 882.136 156.87 919.371 194.802 930.425C212.988 935.697 234.115 932.425 250.195 944.061C268.454 957.26 269.434 980.75 275.169 1000.39C287.729 1043.26 340.798 1037.22 372.633 1056.09L372.778 1056.2C391.545 1065.73 401.963 1082.27 416.845 1096.24C465.378 1144.71 512.022 1068.57 552.206 1125.18C564.402 1142.38 580.773 1164.27 604.44 1157.91C638.271 1148.82 649.27 1071.26 692.575 1105.4C706.333 1118.02 716.025 1141.33 730.617 1153.83C745.463 1169.07 774.212 1164.53 781.037 1143.65C791.563 1118.93 782.452 1083.87 795.375 1060.27C833.09 1015.99 875.088 1133.58 921.043 1109.95C964.348 1082.09 883.655 986.859 940.717 976.023C967.688 976.75 993.388 1002.02 1020.03 1005.37C1041.48 1009.84 1059.63 987.259 1054.08 966.751C1050.49 947.297 1034.95 928.098 1031.39 909.516C1022.39 862.609 1083.26 876.536 1110.31 866.5C1159.89 841.228 1098.98 793.63 1116.55 757.413C1124.39 737.159 1144.61 729.378 1155.36 711.451C1175.61 677.743 1147.19 642.472 1148.71 607.455H1148.75Z" stroke="#3AB7A8" stroke-miterlimit="10"/>
<path d="M1173.58 607.456V607.274C1171.94 570.548 1201.67 533.749 1180.55 498.514C1169.33 479.788 1148.17 471.643 1139.96 450.48C1121.6 412.481 1185.27 362.847 1133.43 336.375C1104.97 325.794 1041.48 340.448 1050.89 291.359C1054.62 271.941 1070.85 251.833 1074.63 231.506C1080.51 210.052 1061.38 186.453 1039.02 191.108C1011.17 194.599 984.24 221.034 956.036 221.797C896.359 210.416 980.792 110.856 935.49 81.73C887.466 57.0037 843.508 180.017 804.087 133.692C790.583 109.038 800.13 72.3485 789.095 46.495C781.908 24.6049 751.924 19.9505 736.352 35.8408C721.07 48.9312 710.979 73.3303 696.568 86.4935C658.127 118.383 639.832 56.7491 616.346 37.5499C572.352 8.89638 558.413 70.5668 527.34 85.2572C505.706 95.5113 483.455 83.2209 463.417 78.6029C417.136 67.9851 396.3 118.783 362.106 137.946L361.924 138.055C331.506 157.145 283.118 150.673 264.461 186.453C253.607 205.471 257.382 227.87 243.262 245.724C227.726 268.123 198.94 263.141 175.89 269.505C136.251 280.413 146.234 320.376 163.512 347.138C185.945 387.391 159.301 408.372 118.828 406.772C85.7953 405.463 44.6681 426.408 69.1339 462.807C86.5576 488.733 138.466 497.533 140.244 533.022C126.559 576.875 34.1776 555.567 26.4822 607.383C34.1776 659.199 126.559 637.927 140.244 681.744C138.466 717.233 86.5213 726.069 69.1339 751.959C44.5592 788.54 85.9042 809.157 118.828 807.994C159.156 806.576 185.981 826.938 163.512 867.628C146.197 894.754 136.215 933.698 175.854 945.261C194.875 950.788 216.981 947.37 233.788 959.515C252.881 973.333 253.934 997.914 259.923 1018.42C273.027 1063.26 328.565 1056.93 361.888 1076.71L362.07 1076.82C381.707 1086.78 392.597 1104.09 408.17 1118.67C458.916 1169.36 507.739 1089.73 549.737 1148.96C562.514 1166.96 579.611 1189.83 604.368 1183.18C639.759 1173.65 651.266 1092.56 696.532 1128.27C710.942 1141.47 721.034 1165.87 736.316 1178.93C751.852 1194.85 781.908 1190.09 789.059 1168.27C800.094 1142.42 790.511 1105.73 804.05 1081.07C843.508 1034.75 887.43 1157.76 935.454 1133.04C980.755 1103.91 896.359 1004.31 956.036 992.969C984.24 993.732 1011.14 1020.13 1039.02 1023.66C1061.45 1028.31 1080.47 1004.71 1074.63 983.26C1070.85 962.897 1054.62 942.861 1050.89 923.408C1041.48 874.355 1105.12 888.936 1133.43 878.391C1185.3 851.956 1121.6 802.176 1139.96 764.286C1148.17 743.087 1169.29 734.942 1180.55 716.252C1201.75 680.98 1172.02 644.109 1173.58 607.492V607.456Z" stroke="#3AB7A8" stroke-miterlimit="10"/>
<path d="M1198.41 607.455V607.237C1196.7 568.875 1228.14 530.258 1205.67 493.714C1194.16 474.042 1171.87 465.679 1163.3 443.57C1144.14 403.899 1210.6 352.083 1156.48 324.484C1126.79 313.43 1061.34 328.884 1070.31 277.504C1074.55 257.287 1091.14 236.269 1095.1 215.034C1101.23 192.634 1081.27 168.017 1057.93 172.89C1028.85 176.526 1000.76 204.125 971.318 204.925C909.028 193.034 997.163 89.1474 949.865 58.7122C899.735 32.895 853.853 161.29 812.69 112.965C798.569 87.2202 808.551 48.9307 797.045 21.9499C789.531 -0.885582 758.241 -5.75813 741.978 10.8231C726.043 24.4953 715.48 49.9489 700.452 63.6938C660.341 97.0016 641.211 32.6404 616.709 12.6048C570.791 -17.3213 556.235 47.0763 523.819 62.4211C501.205 73.1116 478.01 60.2758 457.065 55.4759C408.75 44.4218 387.007 97.438 351.325 117.437L351.143 117.546C319.381 137.473 268.889 130.709 249.433 168.09C238.107 187.944 242.028 211.325 227.29 229.942C211.064 253.323 181.081 248.341 156.978 254.741C115.706 266.523 126.051 307.866 144.056 335.756C167.469 377.791 139.7 399.027 97.411 398.008C62.963 396.154 20.1297 418.444 45.5393 456.479C63.8342 483.496 117.884 492.732 119.771 529.785C105.469 575.565 9.05845 553.312 1 607.419C9.02215 661.489 105.469 639.309 119.771 685.052C117.92 722.105 63.7979 731.378 45.5393 758.359C20.0572 796.648 63.0719 818.611 97.411 816.865C139.555 816.029 167.541 836.61 144.056 879.118C125.979 907.444 115.597 947.951 156.942 960.133C176.798 965.842 199.957 962.205 217.417 975.005C237.454 989.295 238.615 1015 244.677 1036.49C258.762 1083.18 316.332 1076.67 351.107 1097.33L351.289 1097.44C371.798 1107.84 383.159 1125.87 399.385 1141.14C452.346 1194.05 502.911 1111.22 547.16 1172.74C560.373 1191.62 578.305 1215.25 604.186 1208.49C641.066 1198.31 653.154 1113.91 700.416 1151.14C715.444 1164.93 726.007 1190.38 741.942 1204.01C758.168 1220.63 789.531 1215.69 797.008 1192.89C808.515 1165.91 798.533 1127.62 812.653 1101.87C853.853 1053.51 899.663 1181.91 949.828 1156.13C997.126 1125.73 909.028 1021.77 971.281 1009.91C1000.72 1010.71 1028.82 1038.28 1057.89 1041.95C1081.3 1046.82 1101.16 1022.2 1095.06 999.804C1091.11 978.569 1074.52 957.551 1070.27 937.334C1061.27 885.954 1126.9 901.335 1156.44 890.354C1210.6 862.755 1144.07 810.793 1163.27 771.267C1171.84 749.159 1194.12 740.759 1205.63 721.124C1228.17 684.58 1196.74 645.817 1198.37 607.601L1198.41 607.455Z" stroke="#3AB7A8" stroke-miterlimit="10"/>
</svg>
