<svg width="433" height="261" viewBox="0 0 433 261" fill="none" xmlns="http://www.w3.org/2000/svg">
<path d="M92 144H2V120H92" stroke="#426A5A" stroke-width="2" stroke-miterlimit="10"/>
<path d="M431 144H316V120H417.136" stroke="#426A5A" stroke-width="2" stroke-miterlimit="10"/>
<path d="M405 136H316V128H386.4" stroke="#426A5A" stroke-width="2" stroke-miterlimit="10"/>
<path d="M294 144H115V120H294" stroke="#426A5A" stroke-width="2" stroke-miterlimit="10"/>
<path d="M0 198C18.0404 198 18.0404 219 36.0836 219C54.1268 219 54.1239 198 72.1671 198C90.2103 198 90.2075 219 108.251 219C126.294 219 126.291 198 144.334 198C162.377 198 162.375 219 180.415 219C198.455 219 198.455 198 216.499 198C234.542 198 234.539 219 252.582 219C270.625 219 270.623 198 288.666 198C306.709 198 306.706 219 324.749 219C342.792 219 342.79 198 360.833 198C378.876 198 378.876 219 396.916 219C414.957 219 414.96 198 433 198" stroke="#3AB7A8" stroke-width="2" stroke-miterlimit="10"/>
<path d="M0 217C18.0404 217 18.0404 239 36.0836 239C54.1268 239 54.1239 217 72.1671 217C90.2103 217 90.2075 239 108.251 239C126.294 239 126.291 217 144.334 217C162.377 217 162.375 239 180.415 239C198.455 239 198.455 217 216.499 217C234.542 217 234.539 239 252.582 239C270.625 239 270.623 217 288.666 217C306.709 217 306.706 239 324.749 239C342.792 239 342.79 217 360.833 217C378.876 217 378.876 239 396.916 239C414.957 239 414.96 217 433 217" stroke="#3AB7A8" stroke-width="2" stroke-miterlimit="10"/>
<path d="M0 239C18.0404 239 18.0404 260 36.0836 260C54.1268 260 54.1239 239 72.1671 239C90.2103 239 90.2075 260 108.251 260C126.294 260 126.291 239 144.334 239C162.377 239 162.375 260 180.415 260C198.455 260 198.455 239 216.499 239C234.542 239 234.539 260 252.582 260C270.625 260 270.623 239 288.666 239C306.709 239 306.706 260 324.749 260C342.792 260 342.79 239 360.833 239C378.876 239 378.876 260 396.916 260C414.957 260 414.96 239 433 239" stroke="#3AB7A8" stroke-width="2" stroke-miterlimit="10"/>
<path d="M92 191.52V1H115V199" stroke="#997B66" stroke-width="2" stroke-miterlimit="10"/>
<path d="M294 179V1M316 10.5V198.558" stroke="#997B66" stroke-width="2" stroke-miterlimit="10"/>
<path d="M301 182.398L301 18M309 27V191" stroke="#997B66" stroke-width="2" stroke-miterlimit="10"/>
<path d="M115 1C115 50.7459 155.254 91 205 91" stroke="#997B66" stroke-width="2" stroke-miterlimit="10"/>
<path d="M92 1C92 50.7459 51.7459 91 2 91" stroke="#997B66" stroke-width="2" stroke-miterlimit="10"/>
<path d="M294 1C294 50.7459 253.746 91 204 91" stroke="#997B66" stroke-width="2" stroke-miterlimit="10"/>
<path d="M0 178C18.0404 178 18.0404 200 36.0836 200C54.1268 200 54.1239 178 72.1671 178C90.2103 178 90.2075 200 108.251 200C126.294 200 126.291 178 144.334 178C162.377 178 162.375 200 180.415 200C198.455 200 198.455 178 216.499 178C234.542 178 234.539 200 252.582 200C270.625 200 270.623 178 288.666 178C306.709 178 306.706 200 324.749 200C342.792 200 342.79 178 360.833 178C378.876 178 378.876 200 396.916 200C414.957 200 414.96 178 433 178" stroke="#3AB7A8" stroke-width="2" stroke-miterlimit="10"/>
</svg>
