<svg width="431" height="261" viewBox="0 0 431 261" fill="none" xmlns="http://www.w3.org/2000/svg">
<path d="M79.6225 144H1.7309V120H79.6225" stroke="#426A5A" stroke-width="2" stroke-miterlimit="10"/>
<path d="M373.014 144H273.486V120H361.015" stroke="#426A5A" stroke-width="2" stroke-miterlimit="10"/>
<path d="M350.512 136H273.486V128H334.415" stroke="#426A5A" stroke-width="2" stroke-miterlimit="10"/>
<path d="M254.446 144H99.5281V120H254.446" stroke="#426A5A" stroke-width="2" stroke-miterlimit="10"/>
<path d="M0 198C17.957 198 17.957 219 35.9169 219C53.8767 219 53.8739 198 71.8338 198C89.7936 198 89.7908 219 107.751 219C125.711 219 125.708 198 143.668 198C161.627 198 161.625 219 179.582 219C197.539 219 197.539 198 215.499 198C233.458 198 233.456 219 251.415 219C269.375 219 269.373 198 287.332 198C305.292 198 305.289 219 323.249 219C341.209 219 341.206 198 359.166 198C377.126 198 377.126 219 395.083 219C413.04 219 413.043 198 431 198" stroke="#3AB7A8" stroke-width="2" stroke-miterlimit="10"/>
<path d="M0 217C17.957 217 17.957 239 35.9169 239C53.8767 239 53.8739 217 71.8338 217C89.7936 217 89.7908 239 107.751 239C125.711 239 125.708 217 143.668 217C161.627 217 161.625 239 179.582 239C197.539 239 197.539 217 215.499 217C233.458 217 233.456 239 251.415 239C269.375 239 269.373 217 287.332 217C305.292 217 305.289 239 323.249 239C341.209 239 341.206 217 359.166 217C377.126 217 377.126 239 395.083 239C413.04 239 413.043 217 431 217" stroke="#3AB7A8" stroke-width="2" stroke-miterlimit="10"/>
<path d="M0 239C17.957 239 17.957 260 35.9169 260C53.8767 260 53.8739 239 71.8338 239C89.7936 239 89.7908 260 107.751 260C125.711 260 125.708 239 143.668 239C161.627 239 161.625 260 179.582 260C197.539 260 197.539 239 215.499 239C233.458 239 233.456 260 251.415 260C269.375 260 269.373 239 287.332 239C305.292 239 305.289 260 323.249 260C341.209 260 341.206 239 359.166 239C377.126 239 377.126 260 395.083 260C413.04 260 413.043 239 431 239" stroke="#3AB7A8" stroke-width="2" stroke-miterlimit="10"/>
<path d="M79.6225 191.52V1H99.5281V199" stroke="#997B66" stroke-width="2" stroke-miterlimit="10"/>
<path d="M254.446 179V1M273.486 10.5V198.558" stroke="#997B66" stroke-width="2" stroke-miterlimit="10"/>
<path d="M260.504 182.398L260.504 18M267.428 27V191" stroke="#997B66" stroke-width="2" stroke-miterlimit="10"/>
<path d="M99.5281 1C99.5281 50.7459 134.367 91 177.42 91" stroke="#997B66" stroke-width="2" stroke-miterlimit="10"/>
<path d="M79.6225 1C79.6225 50.7459 44.784 91 1.7309 91" stroke="#997B66" stroke-width="2" stroke-miterlimit="10"/>
<path d="M254.446 1C254.446 50.7459 219.607 91 176.554 91" stroke="#997B66" stroke-width="2" stroke-miterlimit="10"/>
<path d="M0 178C17.957 178 17.957 200 35.9169 200C53.8767 200 53.8739 178 71.8338 178C89.7936 178 89.7908 200 107.751 200C125.711 200 125.708 178 143.668 178C161.627 178 161.625 200 179.582 200C197.539 200 197.539 178 215.499 178C233.458 178 233.456 200 251.415 200C269.375 200 269.373 178 287.332 178C305.292 178 305.289 200 323.249 200C341.209 200 341.206 178 359.166 178C377.126 178 377.126 200 395.083 200C413.04 200 413.043 178 431 178" stroke="#3AB7A8" stroke-width="2" stroke-miterlimit="10"/>
</svg>
