<svg width="705" height="705" viewBox="0 0 705 705" fill="none" xmlns="http://www.w3.org/2000/svg">
<path d="M352.5 704C235.151 704 283.376 587.578 200.399 504.601C117.421 421.624 1 469.845 1 352.5C1 235.151 117.421 283.376 200.399 200.399C283.376 117.421 235.155 1 352.5 1C469.849 1 421.624 117.421 504.601 200.399C587.579 283.376 704 235.155 704 352.5C704 469.849 562.875 408.084 501.733 508.247C432.487 621.688 469.845 704 352.5 704Z" stroke="#997B66" stroke-miterlimit="10"/>
<path d="M352.5 10.2233C466.588 10.2233 419.318 124.339 499.99 205.011C580.661 285.682 694.777 238.412 694.777 352.5C694.777 466.588 556.473 406.294 497.089 503.701C429.737 614.236 466.588 694.772 352.505 694.772C238.417 694.772 285.687 580.656 205.015 499.985C124.344 419.313 10.2282 466.583 10.2282 352.495C10.2282 238.408 124.344 285.678 205.015 205.006C285.687 124.334 238.417 10.2233 352.505 10.2233H352.5Z" stroke="#997B66" stroke-miterlimit="10"/>
<path d="M352.5 19.4515C463.326 19.4515 417.012 131.261 495.378 209.622C573.743 287.988 685.549 241.675 685.549 352.5C685.549 463.326 550.062 404.503 492.434 499.16C426.971 606.785 463.321 685.549 352.5 685.549C241.674 685.549 287.988 573.739 209.622 495.378C131.256 417.012 19.4514 463.326 19.4514 352.5C19.4514 241.675 131.261 287.988 209.622 209.622C287.988 131.257 241.674 19.4515 352.5 19.4515V19.4515Z" stroke="#997B66" stroke-miterlimit="10"/>
<path d="M352.5 28.6748C460.064 28.6748 414.706 138.174 490.766 214.234C566.826 290.294 676.326 244.936 676.326 352.5C676.326 460.064 543.66 402.713 487.79 494.614C424.22 599.333 460.064 676.321 352.505 676.321C244.941 676.321 290.299 566.821 214.239 490.762C138.179 414.702 28.6797 460.059 28.6797 352.495C28.6797 244.932 138.179 290.289 214.239 214.234C290.299 138.174 244.941 28.6748 352.505 28.6748H352.5Z" stroke="#997B66" stroke-miterlimit="10"/>
<path d="M352.5 37.9027C456.802 37.9027 412.4 145.096 486.15 218.85C559.904 292.604 667.097 248.203 667.097 352.5C667.097 456.802 537.253 400.923 483.136 490.072C421.46 591.885 456.797 667.102 352.5 667.097C248.198 667.097 292.6 559.904 218.851 486.15C145.096 412.395 37.903 456.797 37.903 352.5C37.903 248.198 145.096 292.6 218.851 218.85C292.605 145.101 248.203 37.9027 352.5 37.9027V37.9027Z" stroke="#997B66" stroke-miterlimit="10"/>
<path d="M352.5 47.126C453.54 47.126 410.094 152.014 481.538 223.462C552.981 294.905 657.873 251.46 657.873 352.5C657.873 453.54 530.851 399.132 478.491 485.526C418.708 584.429 453.54 657.874 352.504 657.874C251.465 657.874 294.91 552.986 223.466 481.538C152.023 410.094 47.1306 453.54 47.1306 352.5C47.1306 251.46 152.018 294.905 223.466 223.462C294.91 152.018 251.465 47.126 352.504 47.126H352.5Z" stroke="#997B66" stroke-miterlimit="10"/>
<path d="M352.5 56.3541C450.278 56.3541 407.789 158.936 476.926 228.074C546.064 297.211 648.646 254.722 648.646 352.5C648.646 450.278 524.444 397.342 473.838 480.98C415.948 576.977 450.278 648.646 352.5 648.646C254.722 648.646 297.211 546.064 228.074 476.926C158.936 407.788 56.3542 450.278 56.3542 352.5C56.3542 254.722 158.936 297.211 228.074 228.074C297.211 158.936 254.722 56.3541 352.5 56.3541V56.3541Z" stroke="#997B66" stroke-miterlimit="10"/>
<path d="M352.5 65.5775C447.016 65.5775 405.478 165.853 472.315 232.685C539.146 299.517 639.422 257.984 639.422 352.5C639.422 447.016 518.038 395.552 469.193 476.439C413.197 569.525 447.021 639.422 352.505 639.422C257.989 639.422 299.527 539.146 232.69 472.315C165.853 405.483 65.5823 447.016 65.5823 352.5C65.5823 257.984 165.858 299.522 232.69 232.685C299.522 165.849 257.989 65.5775 352.505 65.5775H352.5Z" stroke="#997B66" stroke-miterlimit="10"/>
<path d="M352.5 74.8057C443.754 74.8057 403.172 172.776 467.698 237.302C532.224 301.828 630.195 261.246 630.195 352.5C630.195 443.754 511.631 393.762 464.54 471.893C410.437 562.074 443.754 630.194 352.5 630.194C261.246 630.194 301.828 532.224 237.302 467.698C172.776 403.172 74.8057 443.754 74.8057 352.5C74.8057 261.246 172.776 301.828 237.302 237.302C301.828 172.776 261.246 74.8057 352.5 74.8057Z" stroke="#997B66" stroke-miterlimit="10"/>
<path d="M352.5 84.0291C440.492 84.0291 400.866 179.693 463.087 241.914C525.307 304.134 620.971 264.508 620.971 352.5C620.971 440.492 505.229 391.971 459.895 467.347C407.685 554.617 440.497 620.966 352.505 620.966C264.512 620.966 304.138 525.302 241.918 463.082C179.698 400.862 84.0336 440.488 84.0336 352.495C84.0336 264.503 179.698 304.129 241.918 241.909C304.138 179.689 264.512 84.0244 352.505 84.0244L352.5 84.0291Z" stroke="#997B66" stroke-miterlimit="10"/>
<path d="M352.5 93.2568C437.23 93.2568 398.561 186.615 458.475 246.525C518.389 306.434 611.743 267.769 611.743 352.5C611.743 437.23 498.823 390.181 455.241 462.805C404.925 547.17 437.23 611.743 352.5 611.743C267.77 611.743 306.44 518.384 246.525 458.475C186.611 398.56 93.2572 437.23 93.2572 352.5C93.2572 267.769 186.616 306.439 246.525 246.525C306.435 186.61 267.77 93.2568 352.5 93.2568V93.2568Z" stroke="#997B66" stroke-miterlimit="10"/>
<path d="M352.5 102.48C433.968 102.48 396.255 193.528 453.863 251.137C511.472 308.745 602.52 271.032 602.52 352.5C602.52 433.968 492.42 388.39 450.597 458.259C402.174 539.713 433.973 602.52 352.505 602.52C271.036 602.52 308.75 511.472 251.142 453.863C193.533 396.255 102.485 433.968 102.485 352.5C102.485 271.032 193.533 308.745 251.142 251.137C308.75 193.528 271.036 102.48 352.505 102.48H352.5Z" stroke="#997B66" stroke-miterlimit="10"/>
<path d="M352.5 111.708C430.706 111.708 393.949 200.45 449.247 255.753C504.549 311.056 593.292 274.294 593.292 352.5C593.292 430.706 486.009 386.6 445.943 453.713C399.413 532.262 430.706 593.292 352.495 593.292C274.289 593.292 311.046 504.55 255.748 449.247C200.446 393.944 111.704 430.706 111.704 352.5C111.704 274.294 200.446 311.051 255.748 255.753C311.051 200.45 274.289 111.708 352.495 111.708H352.5Z" stroke="#997B66" stroke-miterlimit="10"/>
<path d="M352.5 120.932C427.445 120.932 391.643 207.368 444.635 260.365C497.627 313.357 584.068 277.556 584.068 352.5C584.068 427.445 479.607 384.81 441.298 449.172C396.663 524.81 427.449 584.068 352.5 584.068C277.556 584.068 313.357 497.632 260.365 444.635C207.373 391.643 120.932 427.445 120.932 352.5C120.932 277.556 207.368 313.357 260.365 260.365C313.357 207.373 277.556 120.932 352.5 120.932V120.932Z" stroke="#997B66" stroke-miterlimit="10"/>
<path d="M352.5 130.16C424.182 130.16 389.337 214.29 440.023 264.976C490.71 315.663 574.84 280.817 574.84 352.5C574.84 424.182 473.069 382.945 436.644 444.626C393.747 517.269 424.182 574.84 352.495 574.84C280.813 574.84 315.658 490.71 264.972 440.023C214.285 389.337 130.155 424.182 130.155 352.5C130.155 280.817 214.285 315.663 264.972 264.976C315.658 214.29 280.813 130.16 352.495 130.16H352.5Z" stroke="#997B66" stroke-miterlimit="10"/>
<path d="M352.5 139.383C420.921 139.383 387.027 221.208 435.412 269.588C483.797 317.969 565.617 284.075 565.617 352.5C565.617 420.921 466.663 381.15 432 440.08C390.987 509.808 420.925 565.612 352.5 565.612C284.079 565.612 317.973 483.788 269.588 435.407C221.208 387.027 139.383 420.921 139.383 352.495C139.383 284.075 221.208 317.969 269.588 269.583C317.969 221.198 284.075 139.378 352.5 139.378V139.383Z" stroke="#997B66" stroke-miterlimit="10"/>
<path d="M352.5 148.611C417.659 148.611 384.721 228.13 430.796 274.205C476.87 320.279 556.389 287.341 556.389 352.5C556.389 417.659 460.247 379.355 427.346 435.539C388.222 502.356 417.659 556.389 352.495 556.389C287.337 556.389 320.275 476.87 274.2 430.796C228.125 384.721 148.607 417.659 148.607 352.5C148.607 287.341 228.125 320.279 274.2 274.205C320.275 228.13 287.337 148.611 352.495 148.611H352.5Z" stroke="#997B66" stroke-miterlimit="10"/>
<path d="M352.5 157.834C414.397 157.834 382.415 235.047 426.184 278.816C469.953 322.585 547.165 290.603 547.165 352.5C547.165 414.396 453.84 377.564 422.702 430.992C385.461 494.895 414.402 547.165 352.5 547.165C290.603 547.165 322.585 469.952 278.816 426.183C235.047 382.415 157.835 414.396 157.835 352.5C157.835 290.603 235.047 322.585 278.816 278.816C322.585 235.047 290.603 157.834 352.5 157.834V157.834Z" stroke="#997B66" stroke-miterlimit="10"/>
<path d="M352.5 167.058C411.135 167.058 380.109 241.965 421.572 283.423C463.035 324.886 537.937 293.86 537.937 352.495C537.937 411.13 447.424 375.765 418.048 426.446C382.691 487.439 411.135 537.937 352.495 537.937C293.86 537.937 324.886 463.03 283.423 421.572C241.96 380.109 167.058 411.135 167.058 352.5C167.058 293.865 241.965 324.891 283.423 283.428C324.881 241.965 293.86 167.063 352.495 167.063L352.5 167.058Z" stroke="#997B66" stroke-miterlimit="10"/>
<path d="M352.5 176.286C407.873 176.286 377.803 248.882 416.96 288.04C456.117 327.197 528.714 297.122 528.714 352.5C528.714 407.873 441.017 373.979 413.403 421.905C379.936 479.987 407.877 528.714 352.5 528.714C297.127 528.714 327.196 456.117 288.039 416.96C248.882 377.803 176.286 407.878 176.286 352.5C176.286 297.127 248.882 327.197 288.039 288.04C327.196 248.882 297.122 176.286 352.5 176.286Z" stroke="#997B66" stroke-miterlimit="10"/>
<path d="M352.5 185.509C404.611 185.509 375.497 255.8 412.344 292.651C449.195 329.503 519.486 300.384 519.486 352.495C519.486 404.606 434.606 372.184 408.749 417.354C377.171 472.526 404.611 519.481 352.495 519.481C300.384 519.481 329.498 449.191 292.651 412.339C255.8 375.488 185.509 404.606 185.509 352.495C185.509 300.384 255.8 329.498 292.651 292.651C329.502 255.805 300.384 185.509 352.495 185.509H352.5Z" stroke="#997B66" stroke-miterlimit="10"/>
<path d="M352.5 194.737C401.349 194.737 373.192 262.722 407.732 297.268C442.273 331.808 510.263 303.651 510.263 352.5C510.263 401.349 428.204 370.398 404.105 412.817C374.415 465.078 401.354 510.263 352.5 510.263C303.651 510.263 331.808 442.278 297.268 407.732C262.727 373.192 194.737 401.349 194.737 352.5C194.737 303.651 262.722 331.808 297.268 297.268C331.813 262.727 303.651 194.737 352.5 194.737V194.737Z" stroke="#997B66" stroke-miterlimit="10"/>
<path d="M352.5 203.961C398.087 203.961 370.886 269.64 403.121 301.875C435.356 334.11 501.035 306.908 501.035 352.495C501.035 398.083 421.797 368.603 399.451 408.267C371.65 457.622 398.087 501.03 352.495 501.03C306.908 501.03 334.109 435.351 301.875 403.116C269.64 370.881 203.961 398.083 203.961 352.495C203.961 306.908 269.64 334.11 301.875 301.875C334.109 269.64 306.908 203.961 352.495 203.961H352.5Z" stroke="#997B66" stroke-miterlimit="10"/>
<path d="M352.5 213.189C394.825 213.189 368.575 276.562 398.509 306.491C428.443 336.42 491.811 310.17 491.811 352.5C491.811 394.825 415.395 366.818 394.807 403.725C368.899 450.17 394.83 491.807 352.5 491.807C310.175 491.807 336.425 428.433 306.491 398.504C276.557 368.575 213.189 394.825 213.189 352.495C213.189 310.17 276.562 336.42 306.491 306.486C336.42 276.557 310.17 213.184 352.5 213.184V213.189Z" stroke="#997B66" stroke-miterlimit="10"/>
<path d="M352.5 222.412C391.563 222.412 366.27 283.479 393.893 311.103C421.516 338.726 482.583 313.432 482.583 352.495C482.583 391.559 408.989 365.027 390.153 399.179C366.143 442.718 391.563 482.583 352.495 482.583C313.432 482.583 338.726 421.516 311.103 393.893C283.48 366.269 222.412 391.563 222.412 352.5C222.412 313.437 283.48 338.731 311.103 311.107C338.726 283.484 313.432 222.417 352.495 222.417L352.5 222.412Z" stroke="#997B66" stroke-miterlimit="10"/>
<path d="M352.5 231.64C388.306 231.64 363.964 290.402 389.281 315.719C414.599 341.037 473.36 316.699 473.36 352.5C473.36 388.306 402.591 363.242 385.508 394.638C363.397 435.276 388.306 473.36 352.5 473.36C316.694 473.36 341.037 414.598 315.719 389.281C290.402 363.964 231.64 388.302 231.64 352.5C231.64 316.694 290.402 341.037 315.719 315.719C341.037 290.402 316.699 231.64 352.5 231.64V231.64Z" stroke="#997B66" stroke-miterlimit="10"/>
<path d="M352.5 240.863C385.044 240.863 361.658 297.319 384.669 320.326C407.681 343.337 464.132 319.951 464.132 352.495C464.132 385.039 396.194 361.456 380.859 390.087C360.645 427.824 385.044 464.127 352.5 464.127C319.956 464.127 343.342 407.671 320.331 384.664C297.319 361.658 240.868 385.039 240.868 352.495C240.868 319.951 297.324 343.337 320.331 320.326C343.342 297.314 319.956 240.863 352.5 240.863V240.863Z" stroke="#997B66" stroke-miterlimit="10"/>
<path d="M352.5 250.092C381.782 250.092 359.352 304.237 380.058 324.942C400.763 345.648 454.908 323.218 454.908 352.5C454.908 381.782 389.806 359.68 376.21 385.55C357.904 420.386 381.782 454.908 352.5 454.908C323.218 454.908 345.648 400.763 324.942 380.058C304.237 359.352 250.092 381.782 250.092 352.5C250.092 323.218 304.237 345.648 324.942 324.942C345.648 304.237 323.218 250.092 352.5 250.092Z" stroke="#997B66" stroke-miterlimit="10"/>
<path d="M352.5 259.315C378.52 259.315 357.046 311.154 375.441 329.554C393.841 347.954 445.68 326.48 445.68 352.495C445.68 378.511 383.413 357.895 371.561 381C355.171 412.939 378.52 445.676 352.5 445.676C326.48 445.676 347.954 393.837 329.559 375.437C311.159 357.037 259.32 378.511 259.32 352.495C259.32 326.475 311.159 347.949 329.559 329.554C347.959 311.154 326.484 259.315 352.5 259.315Z" stroke="#997B66" stroke-miterlimit="10"/>
<path d="M352.5 268.543C375.258 268.543 354.74 318.076 370.829 334.17C386.919 350.259 436.457 329.746 436.457 352.5C436.457 375.258 377.039 356.123 366.911 376.463C352.443 405.515 375.258 436.457 352.5 436.457C329.741 436.457 350.259 386.923 334.17 370.829C318.081 354.74 268.543 375.253 268.543 352.5C268.543 329.741 318.076 350.259 334.17 334.17C350.259 318.081 329.746 268.543 352.5 268.543V268.543Z" stroke="#997B66" stroke-miterlimit="10"/>
<path d="M352.5 277.767C371.996 277.767 352.434 324.994 366.218 338.778C380.001 352.561 427.229 332.999 427.229 352.495C427.229 371.992 370.665 354.347 362.262 371.912C349.739 398.083 371.996 427.229 352.5 427.229C333.003 427.229 352.565 380.001 338.782 366.218C324.998 352.434 277.771 371.997 277.771 352.5C277.771 333.004 324.998 352.566 338.782 338.782C352.565 324.999 333.003 277.771 352.5 277.771V277.767Z" stroke="#997B66" stroke-miterlimit="10"/>
<path d="M352.5 418.005C336.265 418.005 354.876 373.084 343.394 361.606C331.911 350.128 286.994 368.735 286.994 352.5C286.994 336.265 331.916 354.876 343.394 343.394C354.871 331.916 336.265 286.994 352.5 286.994C368.735 286.994 350.124 331.916 361.606 343.394C373.084 354.871 418.006 336.265 418.006 352.5C418.006 368.735 364.315 352.584 357.613 367.371C347.059 390.668 368.735 418.005 352.5 418.005V418.005Z" stroke="#997B66" stroke-miterlimit="10"/>
</svg>
