<svg width="1440" height="933" viewBox="0 0 1440 933" fill="none" xmlns="http://www.w3.org/2000/svg">
 <defs>
    <linearGradient id="fadeGrad" y1="1" y2="0" x2="0">
      <stop offset="0" stop-color="white" stop-opacity="0"/>
      <stop offset="1" stop-color="white" stop-opacity="1"/>
    </linearGradient>

    <mask id="fade" maskContentUnits="objectBoundingBox">
      <rect width="1" height="1" fill="url(#fadeGrad)"/>
    </mask>
  </defs>
<path mask="url(#fade)" d="M947.492 0.212414C948.881 53.4579 950.948 105.077 971.379 119.934C1016.42 152.715 1200.54 48.0029 1233.32 93.049C1265.78 137.655 1109.55 280.264 1126.95 333.848C1143.74 385.552 1354.52 408.795 1354.52 466.106C1354.52 523.418 1143.74 546.661 1126.95 598.364C1109.55 651.949 1265.78 794.558 1233.32 839.163C1200.54 884.21 1016.42 779.497 971.379 812.278C950.948 827.152 948.881 878.755 947.492 932M1056.49 0.212415C1056.88 0.517353 1057.27 0.85612 1057.68 1.14412C1084.58 20.7279 1141.6 10.6142 1198.96 0.212417M2.45644 893.951C29.4095 819.715 85.5519 729.945 68.611 677.75C60.6826 653.321 33.4415 631.603 3.83271e-06 610.596M51.4498 0.263245C35.6608 68.654 160.109 210.399 138.459 277.096C126.38 314.298 59.5645 343.725 0.0169476 374.828M0.0169451 582.491C48.2818 608.749 93.3787 635.092 103.543 666.399C123.246 727.15 33.7125 844.042 20.9729 920.565M602.184 931.966C641.402 879.415 688.126 783.733 719.975 783.733C751.824 783.733 798.564 879.415 837.782 931.966M541.789 931.966C534.708 870.165 560.865 743.176 533.336 723.152C497.624 697.164 321.743 810.11 295.756 774.415C270.022 739.059 431.571 606.784 417.781 564.313C404.483 523.333 195.584 511.525 195.584 466.106C195.584 420.687 404.483 408.88 417.781 367.899C431.571 325.428 270.022 193.153 295.756 157.797C321.743 122.086 497.624 235.048 533.336 209.061C560.848 189.037 534.708 62.047 541.789 0.246283M451.121 931.966C446.446 904.03 439.076 881.55 425.456 871.639C374.175 834.318 184.589 933.559 147.268 882.278C110.32 831.506 262.992 682.019 243.188 621.031C224.078 562.178 12.045 531.312 12.045 466.089C12.045 400.867 224.078 370 243.188 311.147C262.992 250.16 110.32 100.655 147.268 49.9003C184.589 -1.38006 374.175 97.8602 425.456 60.5392C439.076 50.6287 446.446 28.1481 451.121 0.212408M525.492 931.966C524.238 865.168 536.961 771.179 511.753 752.849C472.924 724.592 294.299 834.81 266.058 795.981C238.088 757.542 397.859 621.828 382.866 575.647C368.398 531.092 158.872 515.472 158.872 466.089C158.872 416.706 368.398 401.087 382.866 356.532C397.859 310.351 238.088 174.637 266.058 136.198C294.316 97.3689 472.941 207.587 511.753 179.329C536.944 160.999 524.239 67.0107 525.492 0.212409M775.151 931.966C755.347 909.74 736.441 893.849 719.992 893.849C703.542 893.849 684.653 909.74 664.832 931.966L640.047 931.966C668.779 892.629 697.138 857.155 719.992 857.155C742.845 857.155 771.204 892.646 799.936 931.966M2.45645 38.228C29.4095 112.463 85.5519 202.234 68.611 254.429C60.6826 278.858 33.4415 300.576 7.27915e-06 321.583M1.00145e-05 92.2019C25.1912 149.344 49.4507 206.181 37.1177 244.196C31.7813 260.612 18.2116 275.893 7.64925e-06 290.547M1439.98 374.862C1380.44 343.759 1313.62 314.332 1301.54 277.13C1279.89 210.433 1404.32 68.6878 1388.55 0.297075M3.46241e-06 641.649C18.2116 656.303 31.7813 671.566 37.1177 687.999C49.4507 726.015 25.1912 782.852 1.09717e-06 839.994M620.294 931.966C655.362 881.058 692.378 820.444 719.975 820.444C747.571 820.444 784.604 881.058 819.672 931.966M492.491 931.966C491.102 878.721 489.035 827.101 468.604 812.244C423.558 779.463 239.444 884.176 206.663 839.13C174.204 794.524 330.434 651.915 313.035 598.331C296.247 546.627 85.4672 523.384 85.4672 466.072C85.4672 408.761 296.247 385.518 313.035 333.814C330.434 280.23 174.204 137.621 206.663 93.0151C239.444 47.969 423.558 152.681 468.604 119.9C489.035 105.026 491.102 53.424 492.491 0.178473M94.0563 0.178468C91.7354 2.10974 89.6517 4.26133 87.8729 6.71777C46.4352 63.6564 195.567 220.039 173.357 288.429C159.448 331.256 64.7654 362.512 6.35411e-06 399.155M509.585 931.966C509.229 869.623 513.142 799.251 490.187 782.547C448.258 752.036 266.888 859.493 236.36 817.564C206.138 776.041 364.146 636.888 347.951 586.997C332.331 538.868 122.178 519.436 122.178 466.089C122.178 412.742 332.331 393.311 347.951 345.182C364.146 295.307 206.138 156.137 236.36 114.615C266.871 72.686 448.241 180.143 490.187 149.632C513.142 132.928 509.246 62.5552 509.585 0.212408M6.03027e-06 426.312C56.5829 381.029 192.297 349.044 208.289 299.797C229.296 235.099 78.3859 82.1559 117.587 28.3175C157.161 -26.063 349.509 70.4158 403.89 30.8417C412.496 24.5735 418.883 13.8668 423.829 0.212407M20.9729 11.6136C33.7126 88.136 123.246 205.029 103.526 265.762C93.3617 297.052 48.2649 323.412 6.94421e-06 349.671M799.936 0.212412C771.204 39.5494 742.845 75.0238 719.992 75.0238C697.138 75.0238 668.779 39.5324 640.047 0.21241M1345.91 931.966C1348.23 930.035 1350.31 927.883 1352.09 925.427C1393.53 868.488 1244.4 712.106 1266.61 643.715C1280.52 600.889 1375.2 569.633 1439.97 532.989M423.829 931.966C418.883 918.312 412.496 907.605 403.89 901.337C349.509 861.763 157.161 958.242 117.587 903.861C78.4028 850.006 229.296 697.079 208.289 632.382C192.297 583.134 56.5998 551.15 5.08159e-06 505.867M1419.01 920.565C1406.27 844.042 1316.74 727.15 1336.46 666.416C1346.62 635.126 1391.72 608.766 1439.98 582.508M1388.53 931.898C1404.32 863.508 1279.87 721.762 1301.52 655.066C1313.6 617.863 1380.42 588.437 1439.97 557.333M819.655 0.212412C784.587 51.12 747.571 111.735 719.975 111.735C692.378 111.735 655.345 51.12 620.294 0.21241M837.782 0.212412C798.564 52.7633 751.841 148.446 719.992 148.446C688.142 148.446 641.402 52.7803 602.201 0.21241M4.75795e-06 533.006C64.7823 569.649 159.465 600.906 173.357 643.732C195.567 712.123 46.4352 868.505 87.8728 925.427C89.6516 927.883 91.7354 930.035 94.0563 931.966M1437.51 893.951C1410.56 819.715 1354.41 729.945 1371.36 677.75C1379.28 653.321 1406.52 631.603 1439.97 610.596M4.46785e-06 557.333C59.5475 588.437 126.363 617.863 138.442 655.066C160.092 721.762 35.6608 863.508 51.4497 931.898M1439.98 321.566C1406.54 300.559 1379.3 278.858 1371.37 254.412C1354.43 202.217 1410.56 112.463 1437.53 38.211M1439.98 290.513C1421.77 275.859 1408.2 260.595 1402.87 244.162C1390.52 206.147 1414.79 149.293 1439.98 92.168M1439.98 349.654C1391.72 323.395 1346.62 297.052 1336.46 265.745C1316.74 205.012 1406.27 88.1191 1419.01 11.5967M1439.98 839.977C1414.79 782.835 1390.53 725.998 1402.87 687.982C1408.2 671.566 1421.77 656.286 1439.98 641.632M914.491 0.195445C915.744 66.9937 903.022 160.982 928.23 179.312C967.059 207.57 1145.68 97.352 1173.92 136.181C1201.89 174.62 1042.12 310.334 1057.12 356.515C1071.58 401.07 1281.11 416.689 1281.11 466.072C1281.11 515.455 1071.58 531.075 1057.12 575.63C1042.12 621.811 1201.89 757.525 1173.92 795.964C1145.67 834.793 967.042 724.575 928.23 752.832C903.039 771.162 915.744 865.151 914.491 931.949M898.194 0.195445C905.275 61.9961 879.118 188.986 906.647 209.01C942.359 234.997 1118.24 122.052 1144.23 157.747C1169.96 193.102 1008.41 325.378 1022.2 367.849C1035.5 408.829 1244.4 420.637 1244.4 466.055C1244.4 511.474 1035.5 523.282 1022.2 564.262C1008.41 606.733 1169.96 739.008 1144.23 774.364C1118.24 810.076 942.359 697.113 906.647 723.101C879.135 743.125 905.275 870.115 898.194 931.915M930.398 0.16151C930.754 62.5043 926.841 132.877 949.796 149.581C991.725 180.092 1173.09 72.6351 1203.62 114.564C1233.85 156.086 1075.84 295.24 1092.03 345.131C1107.65 393.26 1317.8 412.691 1317.8 466.038C1317.8 519.386 1107.65 538.817 1092.03 586.946C1075.84 636.82 1233.85 775.991 1203.62 817.513C1173.11 859.442 991.742 751.985 949.796 782.496C926.841 799.2 930.737 869.573 930.398 931.915M1439.98 399.122C1375.2 362.478 1280.52 331.222 1266.63 288.395C1244.42 220.005 1393.55 63.6225 1352.11 6.68385C1350.33 4.22741 1348.25 2.07594 1345.93 0.144669M1016.17 0.144665C1021.12 13.7991 1027.5 24.5057 1036.11 30.7739C1090.49 70.348 1282.84 -26.1308 1322.41 28.2497C1361.6 82.1051 1210.7 235.031 1231.71 299.729C1247.7 348.976 1383.4 380.961 1440 426.244M473.348 931.966C470.214 890.545 464.437 854.597 447.022 841.942C398.858 806.891 211.999 908.876 176.949 860.712C142.253 813.024 296.704 666.975 278.103 609.698C260.163 554.42 48.7561 527.365 48.7561 466.106C48.7561 404.848 260.163 377.776 278.103 322.515C296.704 265.22 142.253 119.172 176.949 71.5001C211.999 23.3369 398.858 125.322 447.022 90.2707C464.42 77.5988 470.214 41.667 473.348 0.246283M1439.98 505.867C1383.4 551.15 1247.69 583.134 1231.69 632.382C1210.69 697.079 1361.6 850.023 1322.4 903.861C1282.82 958.242 1090.47 861.763 1036.09 901.337C1027.49 907.605 1021.1 918.312 1016.15 931.966M775.151 0.212412C755.33 22.439 736.441 38.3296 719.992 38.3296C703.542 38.3296 684.636 22.439 664.832 0.21241M966.635 0.246288C969.769 41.667 975.546 77.6158 992.961 90.2707C1041.12 125.322 1227.98 23.3369 1263.03 71.5001C1297.73 119.189 1143.28 265.237 1161.88 322.515C1179.82 377.793 1391.23 404.848 1391.23 466.106C1391.23 527.365 1179.82 554.436 1161.88 609.698C1143.28 666.992 1297.73 813.04 1263.03 860.712C1227.98 908.876 1041.12 806.891 992.961 841.942C975.563 854.614 969.769 890.545 966.635 931.966M988.862 0.212414C993.537 28.1481 1000.91 50.6287 1014.53 60.5392C1065.81 97.8602 1255.39 -1.38005 1292.72 49.9003C1329.66 100.672 1176.99 250.16 1196.8 311.147C1215.9 370 1427.94 400.867 1427.94 466.089C1427.94 531.312 1215.9 562.178 1196.8 621.031C1176.99 682.019 1329.66 831.523 1292.72 882.278C1255.39 933.559 1065.81 834.318 1014.53 871.639C1000.91 881.55 993.537 904.03 988.862 931.966M719.992 636.922C690.413 636.922 630.001 833.946 603.302 825.272C575.637 816.293 642.656 621.116 619.633 604.362C596.373 587.437 431.47 711.361 414.546 688.101C397.791 665.078 566.439 546.576 557.46 518.911C548.786 492.212 342.411 495.651 342.411 466.072C342.411 436.493 548.803 439.932 557.46 413.233C566.439 385.569 397.791 267.084 414.546 244.061C431.47 220.801 596.373 344.724 619.633 327.8C642.656 311.045 575.637 115.868 603.302 106.89C630.001 98.216 690.413 295.24 719.992 295.24C749.57 295.24 809.982 98.216 836.681 106.89C864.346 115.868 797.327 311.045 820.35 327.8C843.61 344.724 1008.51 220.801 1025.44 244.061C1042.19 267.084 873.545 385.586 882.523 413.25C891.197 439.949 1097.57 436.51 1097.57 466.089C1097.57 495.668 891.18 492.229 882.523 518.928C873.545 546.593 1042.19 665.078 1025.44 688.101C1008.51 711.361 843.61 587.437 820.35 604.362C797.327 621.116 864.346 816.293 836.681 825.272C809.982 833.946 749.57 636.922 719.992 636.922ZM719.992 747.038C678.537 747.038 606.673 942.182 569.268 930.035C530.49 917.448 587.191 716.951 554.902 693.471C522.307 669.754 349.17 785.444 325.453 752.849C301.973 720.577 465.284 591.757 452.697 552.98C440.55 515.574 232.278 507.578 232.278 466.106C232.278 424.635 440.55 416.656 452.697 379.233C465.284 340.455 301.956 211.636 325.453 179.363C349.17 146.769 522.307 262.459 554.902 238.741C587.174 215.261 530.49 14.7647 569.268 2.16065C606.673 -9.98603 678.52 185.157 719.992 185.157C761.463 185.157 833.31 -9.98603 870.715 2.16065C909.493 14.7478 852.792 215.244 885.081 238.724C917.676 262.442 1090.81 146.752 1114.53 179.346C1138.01 211.619 974.699 340.438 987.286 379.216C999.433 416.622 1207.71 424.618 1207.71 466.089C1207.71 507.561 999.433 515.54 987.286 552.963C974.699 591.74 1138.03 720.56 1114.53 752.832C1090.81 785.427 917.676 669.737 885.081 693.454C852.809 716.934 909.493 917.431 870.715 930.035C833.31 942.182 761.463 747.038 719.992 747.038ZM719.992 563.5C698.324 563.5 645.536 761.777 626.003 755.424C605.742 748.851 679.655 557.232 662.799 544.95C645.773 532.549 486.342 661.961 473.958 644.935C461.692 628.079 633.881 516.472 627.307 496.21C620.955 476.66 415.833 487.723 415.833 466.072C415.833 444.422 620.972 455.484 627.307 435.934C633.881 415.673 461.692 304.083 473.958 287.21C486.359 270.184 645.773 399.596 662.799 387.195C679.655 374.93 605.742 183.311 626.003 176.72C645.553 170.368 698.341 368.645 719.992 368.645C741.642 368.645 794.447 170.368 813.98 176.72C834.241 183.294 760.328 374.913 777.184 387.195C794.21 399.596 953.641 270.184 966.025 287.21C978.291 304.066 806.103 415.673 812.676 435.934C819.028 455.484 1024.15 444.422 1024.15 466.072C1024.15 487.723 819.012 476.66 812.676 496.21C806.103 516.472 978.291 628.062 966.025 644.935C953.624 661.961 794.21 532.549 777.184 544.95C760.328 557.215 834.241 748.834 813.98 755.424C794.43 761.777 741.642 563.5 719.992 563.5ZM719.992 600.211C694.377 600.211 637.777 797.861 614.653 790.357C590.698 782.581 661.155 589.182 641.216 574.664C621.073 560.01 458.914 686.678 444.243 666.535C429.725 646.595 600.151 531.549 592.375 507.578C584.87 484.453 379.105 491.704 379.105 466.089C379.105 440.475 584.87 447.725 592.375 424.601C600.151 400.646 429.725 285.6 444.243 265.644C458.897 245.501 621.073 372.169 641.216 357.515C661.155 342.996 590.698 149.598 614.653 141.822C637.777 134.317 694.377 331.968 719.992 331.968C745.606 331.968 802.206 134.317 825.331 141.822C849.285 149.598 778.828 342.996 798.767 357.515C818.91 372.169 981.069 245.501 995.74 265.644C1010.26 285.583 839.832 400.629 847.608 424.601C855.113 447.725 1060.88 440.475 1060.88 466.089C1060.88 491.704 855.113 484.453 847.608 507.578C839.832 531.532 1010.26 646.578 995.74 666.535C981.086 686.678 818.91 560.01 798.767 574.664C778.828 589.182 849.285 782.581 825.331 790.357C802.206 797.861 745.606 600.211 719.992 600.211ZM719.992 673.616C686.448 673.616 622.225 870.013 591.969 860.187C560.594 850.006 624.173 653.05 598.067 634.059C571.69 614.865 404.042 736.044 384.848 709.684C365.84 683.578 532.726 561.636 522.544 530.279C512.719 500.022 305.7 499.649 305.7 466.106C305.7 432.563 512.719 432.19 522.544 401.934C532.726 370.559 365.857 248.635 384.848 222.529C404.042 196.152 571.69 317.348 598.067 298.153C624.173 279.146 560.594 82.2068 591.969 72.0253C622.225 62.1995 686.465 258.596 719.992 258.596C753.518 258.596 817.758 62.1995 848.014 72.0253C879.389 82.2068 815.81 279.163 841.916 298.153C868.293 317.348 1035.94 196.169 1055.13 222.529C1074.14 248.635 907.257 370.576 917.439 401.934C927.264 432.19 1134.28 432.563 1134.28 466.106C1134.28 499.649 927.264 500.022 917.439 530.279C907.257 561.653 1074.13 683.578 1055.13 709.684C1035.94 736.061 868.293 614.865 841.916 634.059C815.81 653.067 879.389 850.006 848.014 860.187C817.758 870.013 753.518 673.616 719.992 673.616ZM719.992 710.327C682.484 710.327 614.449 906.097 580.618 895.103C545.55 883.718 605.674 685.001 576.485 663.757C547.007 642.292 376.598 760.744 355.151 731.249C333.907 702.06 499.013 576.68 487.612 541.612C476.617 507.781 268.989 503.597 268.989 466.089C268.989 428.582 476.634 424.398 487.612 390.566C498.996 355.499 333.907 230.118 355.134 200.929C376.598 171.452 546.99 289.886 576.468 268.422C605.657 247.178 545.533 48.4603 580.601 37.076C614.432 26.0813 682.484 221.851 719.975 221.851C757.465 221.851 825.517 26.0813 859.348 37.076C894.416 48.4603 834.292 247.178 863.482 268.422C892.959 289.886 1063.37 171.435 1084.82 200.929C1106.06 230.118 940.953 355.499 952.354 390.566C963.349 424.398 1170.98 428.582 1170.98 466.089C1170.98 503.597 963.332 507.781 952.354 541.612C940.97 576.68 1106.06 702.06 1084.83 731.249C1063.37 760.727 892.976 642.292 863.499 663.757C834.309 685.001 894.433 883.718 859.365 895.103C825.534 906.097 757.482 710.327 719.992 710.327ZM720.008 526.738C702.305 526.738 653.329 725.642 637.353 720.458C620.802 715.088 698.155 525.23 684.382 515.201C670.456 505.07 513.786 637.227 503.655 623.318C493.626 609.545 667.61 501.377 662.223 484.826C657.039 468.851 452.527 483.725 452.527 466.038C452.527 448.352 657.039 463.209 662.223 447.251C667.593 430.7 493.626 322.548 503.655 308.758C513.786 294.833 670.473 426.99 684.382 416.859C698.155 406.83 620.802 216.989 637.353 211.602C653.329 206.418 702.305 405.322 720.008 405.322C737.712 405.322 786.688 206.418 802.664 211.602C819.215 216.972 741.862 406.83 755.635 416.859C769.561 426.99 926.231 294.833 936.362 308.742C946.391 322.515 772.407 430.683 777.794 447.234C782.978 463.209 987.49 448.335 987.49 466.022C987.49 483.708 782.978 468.851 777.794 484.809C772.424 501.36 946.391 609.512 936.362 623.302C926.231 637.227 769.544 505.07 755.635 515.201C741.862 525.23 819.215 715.071 802.664 720.458C786.688 725.642 737.712 526.738 720.008 526.738Z" stroke="url(#paint0_linear_141_840)" stroke-miterlimit="10"/>
<defs>
<linearGradient id="paint0_linear_141_840" x1="720" y1="906.645" x2="713.552" y2="-33.8111" gradientUnits="userSpaceOnUse">
<stop offset="0.289062" stop-color="#F6E7CB"/>
<stop offset="0.580729" stop-color="#FFA686"/>
<stop offset="0.96153" stop-color="#3AB795"/>
</linearGradient>
</defs>
</svg>
