<svg width="463" height="272" viewBox="0 0 463 272" fill="none" xmlns="http://www.w3.org/2000/svg">
<path d="M344.478 23.2097C344.594 22.6697 344.25 22.1381 343.71 22.0222L334.91 20.1348C334.37 20.019 333.838 20.3629 333.722 20.9029C333.607 21.4429 333.95 21.9746 334.49 22.0904L342.313 23.7681L340.635 31.5902C340.519 32.1302 340.863 32.6618 341.403 32.7776C341.943 32.8935 342.475 32.5496 342.59 32.0096L344.478 23.2097ZM8.5431 240.84L344.043 23.8397L342.957 22.1603L7.4569 239.16L8.5431 240.84Z" fill="#3AB7A8"/>
<path d="M344.819 102.749C345.136 102.296 345.026 101.673 344.573 101.356L337.199 96.1968C336.746 95.8802 336.123 95.9904 335.806 96.4429C335.49 96.8954 335.6 97.5189 336.052 97.8355L342.607 102.422L338.021 108.977C337.705 109.429 337.815 110.053 338.267 110.369C338.72 110.686 339.344 110.576 339.66 110.123L344.819 102.749ZM10.5748 239.818C84.3828 187.972 229.324 123.458 344.174 103.16L343.826 101.191C228.676 121.542 83.4631 186.173 9.42519 238.182L10.5748 239.818Z" fill="#3AB7A8"/>
<path d="M343.269 152.139C343.622 151.714 343.564 151.084 343.139 150.731L336.218 144.978C335.793 144.625 335.163 144.683 334.81 145.108C334.457 145.533 334.515 146.163 334.94 146.516L341.092 151.63L335.978 157.782C335.625 158.207 335.683 158.837 336.108 159.19C336.533 159.543 337.163 159.485 337.516 159.06L343.269 152.139ZM9.5423 241.84C64.3576 206.459 163.682 168.988 342.592 152.496L342.408 150.504C163.318 167.012 63.6424 204.541 8.4577 240.16L9.5423 241.84Z" fill="#3AB7A8"/>
<path d="M393.707 178.207C394.098 177.817 394.098 177.183 393.707 176.793L387.343 170.429C386.953 170.038 386.319 170.038 385.929 170.429C385.538 170.819 385.538 171.453 385.929 171.843L391.586 177.5L385.929 183.157C385.538 183.547 385.538 184.181 385.929 184.571C386.319 184.962 386.953 184.962 387.343 184.571L393.707 178.207ZM7 178.5H393V176.5H7V178.5Z" fill="#997B66"/>
<path d="M8.20711 0.292893C7.81658 -0.0976311 7.18342 -0.0976311 6.79289 0.292893L0.428932 6.65685C0.0384079 7.04738 0.0384079 7.68054 0.428932 8.07107C0.819456 8.46159 1.45262 8.46159 1.84315 8.07107L7.5 2.41421L13.1569 8.07107C13.5474 8.46159 14.1805 8.46159 14.5711 8.07107C14.9616 7.68054 14.9616 7.04738 14.5711 6.65685L8.20711 0.292893ZM7.5 242.5H6.5V243.5H7.5V242.5ZM393.707 243.207C394.098 242.817 394.098 242.183 393.707 241.793L387.343 235.429C386.953 235.038 386.319 235.038 385.929 235.429C385.538 235.819 385.538 236.453 385.929 236.843L391.586 242.5L385.929 248.157C385.538 248.547 385.538 249.181 385.929 249.571C386.319 249.962 386.953 249.962 387.343 249.571L393.707 243.207ZM6.5 1V242.5H8.5V1H6.5ZM7.5 243.5H393V241.5H7.5V243.5Z" fill="#426A5A"/>
<path d="M20.2784 38V26.3636H24.4261C25.3277 26.3636 26.0758 26.5189 26.6705 26.8295C27.2689 27.1402 27.7159 27.5701 28.0114 28.1193C28.3068 28.6648 28.4545 29.2955 28.4545 30.0114C28.4545 30.7235 28.3049 31.3504 28.0057 31.892C27.7102 32.4299 27.2633 32.8485 26.6648 33.1477C26.0701 33.447 25.322 33.5966 24.4205 33.5966H21.2784V32.0852H24.2614C24.8295 32.0852 25.2917 32.0038 25.6477 31.8409C26.0076 31.678 26.2708 31.4413 26.4375 31.1307C26.6042 30.8201 26.6875 30.447 26.6875 30.0114C26.6875 29.572 26.6023 29.1913 26.4318 28.8693C26.2652 28.5473 26.0019 28.3011 25.642 28.1307C25.286 27.9564 24.8182 27.8693 24.2386 27.8693H22.0341V38H20.2784ZM26.0227 32.75L28.8977 38H26.8977L24.0795 32.75H26.0227ZM34.1065 38.1761C33.2467 38.1761 32.5062 37.9924 31.8849 37.625C31.2675 37.2538 30.7902 36.733 30.4531 36.0625C30.1198 35.3883 29.9531 34.5985 29.9531 33.6932C29.9531 32.7992 30.1198 32.0114 30.4531 31.3295C30.7902 30.6477 31.2599 30.1155 31.8622 29.733C32.4683 29.3504 33.1766 29.1591 33.9872 29.1591C34.4796 29.1591 34.9569 29.2405 35.419 29.4034C35.8812 29.5663 36.2959 29.822 36.6634 30.1705C37.0308 30.5189 37.3205 30.9716 37.5327 31.5284C37.7448 32.0814 37.8509 32.7538 37.8509 33.5455V34.1477H30.9134V32.875H36.1861C36.1861 32.428 36.0952 32.0322 35.9134 31.6875C35.7315 31.339 35.4759 31.0644 35.1463 30.8636C34.8205 30.6629 34.438 30.5625 33.9986 30.5625C33.5213 30.5625 33.1046 30.6799 32.7486 30.9148C32.3963 31.1458 32.1236 31.4489 31.9304 31.8239C31.741 32.1951 31.6463 32.5985 31.6463 33.0341V34.0284C31.6463 34.6117 31.7486 35.108 31.9531 35.517C32.1615 35.9261 32.4512 36.2386 32.8224 36.4545C33.1937 36.6667 33.6274 36.7727 34.1236 36.7727C34.4455 36.7727 34.7391 36.7273 35.0043 36.6364C35.2694 36.5417 35.4986 36.4015 35.6918 36.2159C35.8849 36.0303 36.0327 35.8011 36.1349 35.5284L37.7429 35.8182C37.6141 36.2917 37.383 36.7064 37.0497 37.0625C36.7202 37.4148 36.3054 37.6894 35.8054 37.8864C35.3092 38.0795 34.7429 38.1761 34.1065 38.1761ZM41.6122 38L39.044 29.2727H40.7997L42.5099 35.6818H42.5952L44.3111 29.2727H46.0668L47.7713 35.6534H47.8565L49.5554 29.2727H51.3111L48.7486 38H47.0156L45.2429 31.6989H45.1122L43.3395 38H41.6122ZM55.4631 38.1932C54.91 38.1932 54.41 38.0909 53.9631 37.8864C53.5161 37.678 53.1619 37.3769 52.9006 36.983C52.643 36.589 52.5142 36.1061 52.5142 35.5341C52.5142 35.0417 52.6089 34.6364 52.7983 34.3182C52.9877 34 53.2434 33.7481 53.5653 33.5625C53.8873 33.3769 54.2472 33.2367 54.6449 33.142C55.0426 33.0473 55.4479 32.9754 55.8608 32.9261C56.3835 32.8655 56.8078 32.8163 57.1335 32.7784C57.4593 32.7367 57.696 32.6705 57.8438 32.5795C57.9915 32.4886 58.0653 32.3409 58.0653 32.1364V32.0966C58.0653 31.6004 57.9252 31.2159 57.6449 30.9432C57.3684 30.6705 56.9555 30.5341 56.4062 30.5341C55.8343 30.5341 55.3835 30.661 55.054 30.9148C54.7282 31.1648 54.5028 31.4432 54.3778 31.75L52.7812 31.3864C52.9706 30.8561 53.2472 30.428 53.6108 30.1023C53.9782 29.7727 54.4006 29.5341 54.8778 29.3864C55.3551 29.2348 55.857 29.1591 56.3835 29.1591C56.732 29.1591 57.1013 29.2008 57.4915 29.2841C57.8854 29.3636 58.2528 29.5114 58.5938 29.7273C58.9384 29.9432 59.2206 30.2519 59.4403 30.6534C59.66 31.0511 59.7699 31.5682 59.7699 32.2045V38H58.1108V36.8068H58.0426C57.9328 37.0265 57.768 37.2424 57.5483 37.4545C57.3286 37.6667 57.0464 37.8428 56.7017 37.983C56.357 38.1231 55.9441 38.1932 55.4631 38.1932ZM55.8324 36.8295C56.3021 36.8295 56.7036 36.7367 57.0369 36.5511C57.3741 36.3655 57.6297 36.1231 57.804 35.8239C57.982 35.5208 58.071 35.197 58.071 34.8523V33.7273C58.0104 33.7879 57.893 33.8447 57.7188 33.8977C57.5483 33.947 57.3532 33.9905 57.1335 34.0284C56.9138 34.0625 56.6998 34.0947 56.4915 34.125C56.2831 34.1515 56.1089 34.1742 55.9688 34.1932C55.6392 34.2348 55.3381 34.3049 55.0653 34.4034C54.7964 34.5019 54.5805 34.6439 54.4176 34.8295C54.2585 35.0114 54.179 35.2538 54.179 35.5568C54.179 35.9773 54.3343 36.2955 54.6449 36.5114C54.9555 36.7235 55.3513 36.8295 55.8324 36.8295ZM62.0327 38V29.2727H63.6747V30.6591H63.7656C63.9247 30.1894 64.205 29.8201 64.6065 29.5511C65.0118 29.2784 65.4702 29.142 65.9815 29.142C66.0876 29.142 66.2126 29.1458 66.3565 29.1534C66.5043 29.161 66.6198 29.1705 66.7031 29.1818V30.8068C66.6349 30.7879 66.5137 30.767 66.3395 30.7443C66.1652 30.7178 65.991 30.7045 65.8168 30.7045C65.4152 30.7045 65.0573 30.7898 64.7429 30.9602C64.4323 31.1269 64.1861 31.3598 64.0043 31.6591C63.8224 31.9545 63.7315 32.2917 63.7315 32.6705V38H62.0327ZM71.1278 38.1705C70.4233 38.1705 69.7945 37.9905 69.2415 37.6307C68.6922 37.267 68.2604 36.75 67.946 36.0795C67.6354 35.4053 67.4801 34.5966 67.4801 33.6534C67.4801 32.7102 67.6373 31.9034 67.9517 31.233C68.2699 30.5625 68.7055 30.0492 69.2585 29.6932C69.8116 29.3371 70.4384 29.1591 71.1392 29.1591C71.6809 29.1591 72.1165 29.25 72.446 29.4318C72.7794 29.6098 73.0369 29.8182 73.2188 30.0568C73.4044 30.2955 73.5483 30.5057 73.6506 30.6875H73.7528V26.3636H75.4517V38H73.7926V36.642H73.6506C73.5483 36.8277 73.4006 37.0398 73.2074 37.2784C73.018 37.517 72.7566 37.7254 72.4233 37.9034C72.09 38.0814 71.6581 38.1705 71.1278 38.1705ZM71.5028 36.7216C71.9915 36.7216 72.4044 36.5928 72.7415 36.3352C73.0824 36.0739 73.34 35.7121 73.5142 35.25C73.6922 34.7879 73.7812 34.25 73.7812 33.6364C73.7812 33.0303 73.6941 32.5 73.5199 32.0455C73.3456 31.5909 73.09 31.2367 72.7528 30.983C72.4157 30.7292 71.9991 30.6023 71.5028 30.6023C70.9915 30.6023 70.5653 30.7348 70.2244 31C69.8835 31.2652 69.6259 31.6269 69.4517 32.0852C69.2813 32.5436 69.196 33.0606 69.196 33.6364C69.196 34.2197 69.2831 34.7443 69.4574 35.2102C69.6316 35.6761 69.8892 36.0455 70.2301 36.3182C70.5748 36.5871 70.9991 36.7216 71.5028 36.7216Z" fill="#304849"/>
<path d="M405.705 162.875V161.364H414.71V162.875H411.08V173H409.33V162.875H405.705ZM418.974 173.176C418.156 173.176 417.442 172.989 416.832 172.614C416.223 172.239 415.749 171.714 415.412 171.04C415.075 170.366 414.906 169.578 414.906 168.676C414.906 167.771 415.075 166.979 415.412 166.301C415.749 165.623 416.223 165.097 416.832 164.722C417.442 164.347 418.156 164.159 418.974 164.159C419.793 164.159 420.507 164.347 421.116 164.722C421.726 165.097 422.2 165.623 422.537 166.301C422.874 166.979 423.043 167.771 423.043 168.676C423.043 169.578 422.874 170.366 422.537 171.04C422.2 171.714 421.726 172.239 421.116 172.614C420.507 172.989 419.793 173.176 418.974 173.176ZM418.98 171.75C419.51 171.75 419.95 171.61 420.298 171.33C420.647 171.049 420.904 170.676 421.071 170.21C421.241 169.744 421.327 169.231 421.327 168.67C421.327 168.114 421.241 167.602 421.071 167.136C420.904 166.667 420.647 166.29 420.298 166.006C419.95 165.722 419.51 165.58 418.98 165.58C418.446 165.58 418.003 165.722 417.651 166.006C417.302 166.29 417.043 166.667 416.872 167.136C416.705 167.602 416.622 168.114 416.622 168.67C416.622 169.231 416.705 169.744 416.872 170.21C417.043 170.676 417.302 171.049 417.651 171.33C418.003 171.61 418.446 171.75 418.98 171.75ZM428.206 173.17C427.501 173.17 426.873 172.991 426.32 172.631C425.77 172.267 425.339 171.75 425.024 171.08C424.714 170.405 424.558 169.597 424.558 168.653C424.558 167.71 424.715 166.903 425.03 166.233C425.348 165.562 425.784 165.049 426.337 164.693C426.89 164.337 427.517 164.159 428.217 164.159C428.759 164.159 429.195 164.25 429.524 164.432C429.857 164.61 430.115 164.818 430.297 165.057C430.482 165.295 430.626 165.506 430.729 165.688H430.831V161.364H432.53V173H430.871V171.642H430.729C430.626 171.828 430.479 172.04 430.286 172.278C430.096 172.517 429.835 172.725 429.501 172.903C429.168 173.081 428.736 173.17 428.206 173.17ZM428.581 171.722C429.07 171.722 429.482 171.593 429.82 171.335C430.161 171.074 430.418 170.712 430.592 170.25C430.77 169.788 430.859 169.25 430.859 168.636C430.859 168.03 430.772 167.5 430.598 167.045C430.424 166.591 430.168 166.237 429.831 165.983C429.494 165.729 429.077 165.602 428.581 165.602C428.07 165.602 427.643 165.735 427.303 166C426.962 166.265 426.704 166.627 426.53 167.085C426.359 167.544 426.274 168.061 426.274 168.636C426.274 169.22 426.361 169.744 426.536 170.21C426.71 170.676 426.967 171.045 427.308 171.318C427.653 171.587 428.077 171.722 428.581 171.722ZM437.494 173.193C436.941 173.193 436.441 173.091 435.994 172.886C435.547 172.678 435.193 172.377 434.932 171.983C434.674 171.589 434.545 171.106 434.545 170.534C434.545 170.042 434.64 169.636 434.83 169.318C435.019 169 435.275 168.748 435.597 168.562C435.919 168.377 436.278 168.237 436.676 168.142C437.074 168.047 437.479 167.975 437.892 167.926C438.415 167.866 438.839 167.816 439.165 167.778C439.491 167.737 439.727 167.67 439.875 167.58C440.023 167.489 440.097 167.341 440.097 167.136V167.097C440.097 166.6 439.956 166.216 439.676 165.943C439.4 165.67 438.987 165.534 438.438 165.534C437.866 165.534 437.415 165.661 437.085 165.915C436.759 166.165 436.534 166.443 436.409 166.75L434.812 166.386C435.002 165.856 435.278 165.428 435.642 165.102C436.009 164.773 436.432 164.534 436.909 164.386C437.386 164.235 437.888 164.159 438.415 164.159C438.763 164.159 439.133 164.201 439.523 164.284C439.917 164.364 440.284 164.511 440.625 164.727C440.97 164.943 441.252 165.252 441.472 165.653C441.691 166.051 441.801 166.568 441.801 167.205V173H440.142V171.807H440.074C439.964 172.027 439.799 172.242 439.58 172.455C439.36 172.667 439.078 172.843 438.733 172.983C438.388 173.123 437.975 173.193 437.494 173.193ZM437.864 171.83C438.333 171.83 438.735 171.737 439.068 171.551C439.405 171.366 439.661 171.123 439.835 170.824C440.013 170.521 440.102 170.197 440.102 169.852V168.727C440.042 168.788 439.924 168.845 439.75 168.898C439.58 168.947 439.384 168.991 439.165 169.028C438.945 169.062 438.731 169.095 438.523 169.125C438.314 169.152 438.14 169.174 438 169.193C437.67 169.235 437.369 169.305 437.097 169.403C436.828 169.502 436.612 169.644 436.449 169.83C436.29 170.011 436.21 170.254 436.21 170.557C436.21 170.977 436.366 171.295 436.676 171.511C436.987 171.723 437.383 171.83 437.864 171.83ZM444.825 176.273C444.571 176.273 444.34 176.252 444.132 176.21C443.924 176.172 443.768 176.131 443.666 176.085L444.075 174.693C444.386 174.777 444.662 174.813 444.905 174.801C445.147 174.79 445.361 174.699 445.547 174.528C445.736 174.358 445.903 174.08 446.047 173.693L446.257 173.114L443.064 164.273H444.882L447.092 171.045H447.183L449.393 164.273H451.217L447.621 174.165C447.454 174.619 447.242 175.004 446.984 175.318C446.727 175.636 446.42 175.875 446.064 176.034C445.708 176.193 445.295 176.273 444.825 176.273ZM454.821 161.364V162.455C454.821 162.777 454.76 163.116 454.639 163.472C454.522 163.824 454.355 164.163 454.139 164.489C453.923 164.814 453.67 165.095 453.378 165.33L452.537 164.727C452.76 164.402 452.954 164.055 453.116 163.688C453.283 163.32 453.366 162.915 453.366 162.472V161.364H454.821ZM461.901 166.403L460.361 166.676C460.296 166.479 460.194 166.292 460.054 166.114C459.918 165.936 459.732 165.79 459.497 165.676C459.262 165.562 458.969 165.506 458.616 165.506C458.135 165.506 457.734 165.614 457.412 165.83C457.09 166.042 456.929 166.316 456.929 166.653C456.929 166.945 457.037 167.18 457.253 167.358C457.469 167.536 457.817 167.682 458.298 167.795L459.685 168.114C460.488 168.299 461.086 168.585 461.48 168.972C461.874 169.358 462.071 169.86 462.071 170.477C462.071 171 461.92 171.466 461.616 171.875C461.317 172.28 460.899 172.598 460.361 172.83C459.827 173.061 459.207 173.176 458.503 173.176C457.526 173.176 456.728 172.968 456.111 172.551C455.493 172.131 455.115 171.534 454.974 170.761L456.616 170.511C456.719 170.939 456.929 171.263 457.247 171.483C457.565 171.699 457.98 171.807 458.491 171.807C459.048 171.807 459.493 171.691 459.827 171.46C460.16 171.225 460.327 170.939 460.327 170.602C460.327 170.33 460.224 170.1 460.02 169.915C459.819 169.729 459.51 169.589 459.094 169.494L457.616 169.17C456.802 168.985 456.2 168.689 455.81 168.284C455.423 167.879 455.23 167.366 455.23 166.744C455.23 166.229 455.374 165.778 455.662 165.392C455.95 165.006 456.348 164.705 456.855 164.489C457.363 164.269 457.944 164.159 458.599 164.159C459.543 164.159 460.285 164.364 460.827 164.773C461.368 165.178 461.726 165.722 461.901 166.403ZM414.153 187.04C414.044 186.695 413.896 186.386 413.71 186.114C413.528 185.837 413.311 185.602 413.057 185.409C412.803 185.212 412.513 185.062 412.188 184.96C411.866 184.858 411.511 184.807 411.125 184.807C410.47 184.807 409.879 184.975 409.352 185.312C408.826 185.65 408.409 186.144 408.102 186.795C407.799 187.443 407.648 188.237 407.648 189.176C407.648 190.119 407.801 190.917 408.108 191.568C408.415 192.22 408.835 192.714 409.369 193.051C409.903 193.388 410.511 193.557 411.193 193.557C411.826 193.557 412.377 193.428 412.847 193.17C413.32 192.913 413.686 192.549 413.943 192.08C414.205 191.606 414.335 191.049 414.335 190.409L414.79 190.494H411.46V189.045H416.034V190.369C416.034 191.347 415.826 192.195 415.409 192.915C414.996 193.631 414.424 194.184 413.693 194.574C412.966 194.964 412.133 195.159 411.193 195.159C410.14 195.159 409.216 194.917 408.42 194.432C407.629 193.947 407.011 193.259 406.568 192.369C406.125 191.475 405.903 190.415 405.903 189.188C405.903 188.259 406.032 187.426 406.29 186.688C406.547 185.949 406.909 185.322 407.375 184.807C407.845 184.288 408.396 183.892 409.028 183.619C409.665 183.343 410.36 183.205 411.114 183.205C411.742 183.205 412.328 183.297 412.869 183.483C413.415 183.669 413.9 183.932 414.324 184.273C414.752 184.614 415.106 185.019 415.386 185.489C415.667 185.955 415.856 186.472 415.955 187.04H414.153ZM418.126 195V186.273H419.768V187.659H419.859C420.018 187.189 420.299 186.82 420.7 186.551C421.106 186.278 421.564 186.142 422.075 186.142C422.181 186.142 422.306 186.146 422.45 186.153C422.598 186.161 422.714 186.17 422.797 186.182V187.807C422.729 187.788 422.607 187.767 422.433 187.744C422.259 187.718 422.085 187.705 421.911 187.705C421.509 187.705 421.151 187.79 420.837 187.96C420.526 188.127 420.28 188.36 420.098 188.659C419.916 188.955 419.825 189.292 419.825 189.67V195H418.126ZM426.729 195.193C426.176 195.193 425.676 195.091 425.229 194.886C424.782 194.678 424.428 194.377 424.166 193.983C423.909 193.589 423.78 193.106 423.78 192.534C423.78 192.042 423.875 191.636 424.064 191.318C424.253 191 424.509 190.748 424.831 190.562C425.153 190.377 425.513 190.237 425.911 190.142C426.308 190.047 426.714 189.975 427.126 189.926C427.649 189.866 428.073 189.816 428.399 189.778C428.725 189.737 428.962 189.67 429.109 189.58C429.257 189.489 429.331 189.341 429.331 189.136V189.097C429.331 188.6 429.191 188.216 428.911 187.943C428.634 187.67 428.221 187.534 427.672 187.534C427.1 187.534 426.649 187.661 426.32 187.915C425.994 188.165 425.768 188.443 425.643 188.75L424.047 188.386C424.236 187.856 424.513 187.428 424.876 187.102C425.244 186.773 425.666 186.534 426.143 186.386C426.621 186.235 427.123 186.159 427.649 186.159C427.998 186.159 428.367 186.201 428.757 186.284C429.151 186.364 429.518 186.511 429.859 186.727C430.204 186.943 430.486 187.252 430.706 187.653C430.926 188.051 431.036 188.568 431.036 189.205V195H429.376V193.807H429.308C429.198 194.027 429.034 194.242 428.814 194.455C428.594 194.667 428.312 194.843 427.967 194.983C427.623 195.123 427.21 195.193 426.729 195.193ZM427.098 193.83C427.568 193.83 427.969 193.737 428.303 193.551C428.64 193.366 428.895 193.123 429.07 192.824C429.248 192.521 429.337 192.197 429.337 191.852V190.727C429.276 190.788 429.159 190.845 428.984 190.898C428.814 190.947 428.619 190.991 428.399 191.028C428.179 191.062 427.965 191.095 427.757 191.125C427.549 191.152 427.375 191.174 427.234 191.193C426.905 191.235 426.604 191.305 426.331 191.403C426.062 191.502 425.846 191.644 425.683 191.83C425.524 192.011 425.445 192.254 425.445 192.557C425.445 192.977 425.6 193.295 425.911 193.511C426.221 193.723 426.617 193.83 427.098 193.83ZM434.997 189.818V195H433.298V186.273H434.929V187.693H435.037C435.238 187.231 435.552 186.86 435.98 186.58C436.412 186.299 436.955 186.159 437.611 186.159C438.205 186.159 438.726 186.284 439.173 186.534C439.62 186.78 439.967 187.148 440.213 187.636C440.459 188.125 440.582 188.729 440.582 189.449V195H438.884V189.653C438.884 189.021 438.719 188.527 438.389 188.17C438.06 187.811 437.607 187.631 437.031 187.631C436.637 187.631 436.287 187.716 435.98 187.886C435.677 188.057 435.437 188.307 435.259 188.636C435.084 188.962 434.997 189.356 434.997 189.818ZM446.935 186.273V187.636H442.168V186.273H446.935ZM443.446 184.182H445.145V192.438C445.145 192.767 445.194 193.015 445.293 193.182C445.391 193.345 445.518 193.456 445.673 193.517C445.832 193.574 446.005 193.602 446.19 193.602C446.327 193.602 446.446 193.593 446.548 193.574C446.651 193.555 446.73 193.54 446.787 193.528L447.094 194.932C446.995 194.97 446.855 195.008 446.673 195.045C446.491 195.087 446.264 195.11 445.991 195.114C445.545 195.121 445.128 195.042 444.741 194.875C444.355 194.708 444.043 194.451 443.804 194.102C443.565 193.754 443.446 193.316 443.446 192.79V184.182ZM455.213 188.403L453.673 188.676C453.609 188.479 453.507 188.292 453.366 188.114C453.23 187.936 453.045 187.79 452.81 187.676C452.575 187.562 452.281 187.506 451.929 187.506C451.448 187.506 451.046 187.614 450.724 187.83C450.402 188.042 450.241 188.316 450.241 188.653C450.241 188.945 450.349 189.18 450.565 189.358C450.781 189.536 451.13 189.682 451.611 189.795L452.997 190.114C453.8 190.299 454.399 190.585 454.793 190.972C455.187 191.358 455.384 191.86 455.384 192.477C455.384 193 455.232 193.466 454.929 193.875C454.63 194.28 454.211 194.598 453.673 194.83C453.139 195.061 452.52 195.176 451.815 195.176C450.838 195.176 450.041 194.968 449.423 194.551C448.806 194.131 448.427 193.534 448.287 192.761L449.929 192.511C450.031 192.939 450.241 193.263 450.56 193.483C450.878 193.699 451.293 193.807 451.804 193.807C452.361 193.807 452.806 193.691 453.139 193.46C453.473 193.225 453.639 192.939 453.639 192.602C453.639 192.33 453.537 192.1 453.332 191.915C453.132 191.729 452.823 191.589 452.406 191.494L450.929 191.17C450.115 190.985 449.512 190.689 449.122 190.284C448.736 189.879 448.543 189.366 448.543 188.744C448.543 188.229 448.687 187.778 448.974 187.392C449.262 187.006 449.66 186.705 450.168 186.489C450.675 186.269 451.257 186.159 451.912 186.159C452.855 186.159 453.598 186.364 454.139 186.773C454.681 187.178 455.039 187.722 455.213 188.403Z" fill="#304849"/>
<path d="M318.034 255.364V267H316.278V255.364H318.034ZM320.455 267V258.273H322.085V259.693H322.193C322.375 259.212 322.672 258.837 323.085 258.568C323.498 258.295 323.992 258.159 324.568 258.159C325.152 258.159 325.64 258.295 326.034 258.568C326.432 258.841 326.725 259.216 326.915 259.693H327.006C327.214 259.227 327.545 258.856 328 258.58C328.455 258.299 328.996 258.159 329.625 258.159C330.417 258.159 331.062 258.407 331.562 258.903C332.066 259.4 332.318 260.148 332.318 261.148V267H330.619V261.307C330.619 260.716 330.458 260.288 330.136 260.023C329.814 259.758 329.43 259.625 328.983 259.625C328.43 259.625 328 259.795 327.693 260.136C327.386 260.473 327.233 260.907 327.233 261.438V267H325.54V261.199C325.54 260.725 325.392 260.345 325.097 260.057C324.801 259.769 324.417 259.625 323.943 259.625C323.621 259.625 323.324 259.71 323.051 259.881C322.782 260.047 322.564 260.28 322.398 260.58C322.235 260.879 322.153 261.225 322.153 261.619V267H320.455ZM334.595 270.273V258.273H336.254V259.688H336.396C336.495 259.506 336.637 259.295 336.822 259.057C337.008 258.818 337.266 258.61 337.595 258.432C337.925 258.25 338.36 258.159 338.902 258.159C339.607 258.159 340.235 258.337 340.788 258.693C341.341 259.049 341.775 259.562 342.089 260.233C342.408 260.903 342.567 261.71 342.567 262.653C342.567 263.597 342.41 264.405 342.095 265.08C341.781 265.75 341.349 266.267 340.8 266.631C340.25 266.991 339.624 267.17 338.919 267.17C338.389 267.17 337.955 267.081 337.618 266.903C337.285 266.725 337.023 266.517 336.834 266.278C336.644 266.04 336.499 265.828 336.396 265.642H336.294V270.273H334.595ZM336.26 262.636C336.26 263.25 336.349 263.788 336.527 264.25C336.705 264.712 336.963 265.074 337.3 265.335C337.637 265.593 338.05 265.722 338.538 265.722C339.046 265.722 339.47 265.587 339.811 265.318C340.152 265.045 340.41 264.676 340.584 264.21C340.762 263.744 340.851 263.22 340.851 262.636C340.851 262.061 340.764 261.544 340.589 261.085C340.419 260.627 340.161 260.265 339.817 260C339.476 259.735 339.05 259.602 338.538 259.602C338.046 259.602 337.629 259.729 337.288 259.983C336.951 260.237 336.696 260.591 336.521 261.045C336.347 261.5 336.26 262.03 336.26 262.636ZM347.01 267.193C346.457 267.193 345.957 267.091 345.51 266.886C345.063 266.678 344.709 266.377 344.447 265.983C344.19 265.589 344.061 265.106 344.061 264.534C344.061 264.042 344.156 263.636 344.345 263.318C344.535 263 344.79 262.748 345.112 262.562C345.434 262.377 345.794 262.237 346.192 262.142C346.589 262.047 346.995 261.975 347.408 261.926C347.93 261.866 348.355 261.816 348.68 261.778C349.006 261.737 349.243 261.67 349.391 261.58C349.538 261.489 349.612 261.341 349.612 261.136V261.097C349.612 260.6 349.472 260.216 349.192 259.943C348.915 259.67 348.502 259.534 347.953 259.534C347.381 259.534 346.93 259.661 346.601 259.915C346.275 260.165 346.05 260.443 345.925 260.75L344.328 260.386C344.518 259.856 344.794 259.428 345.158 259.102C345.525 258.773 345.947 258.534 346.425 258.386C346.902 258.235 347.404 258.159 347.93 258.159C348.279 258.159 348.648 258.201 349.038 258.284C349.432 258.364 349.8 258.511 350.141 258.727C350.485 258.943 350.768 259.252 350.987 259.653C351.207 260.051 351.317 260.568 351.317 261.205V267H349.658V265.807H349.589C349.48 266.027 349.315 266.242 349.095 266.455C348.875 266.667 348.593 266.843 348.249 266.983C347.904 267.123 347.491 267.193 347.01 267.193ZM347.379 265.83C347.849 265.83 348.25 265.737 348.584 265.551C348.921 265.366 349.177 265.123 349.351 264.824C349.529 264.521 349.618 264.197 349.618 263.852V262.727C349.557 262.788 349.44 262.845 349.266 262.898C349.095 262.947 348.9 262.991 348.68 263.028C348.461 263.062 348.247 263.095 348.038 263.125C347.83 263.152 347.656 263.174 347.516 263.193C347.186 263.235 346.885 263.305 346.612 263.403C346.343 263.502 346.127 263.644 345.964 263.83C345.805 264.011 345.726 264.254 345.726 264.557C345.726 264.977 345.881 265.295 346.192 265.511C346.502 265.723 346.898 265.83 347.379 265.83ZM357.256 267.176C356.411 267.176 355.684 266.985 355.074 266.602C354.468 266.216 354.002 265.684 353.676 265.006C353.35 264.328 353.188 263.551 353.188 262.676C353.188 261.79 353.354 261.008 353.688 260.33C354.021 259.648 354.491 259.116 355.097 258.733C355.703 258.35 356.417 258.159 357.239 258.159C357.902 258.159 358.492 258.282 359.011 258.528C359.53 258.771 359.949 259.112 360.267 259.551C360.589 259.991 360.78 260.504 360.841 261.091H359.188C359.097 260.682 358.888 260.33 358.562 260.034C358.241 259.739 357.809 259.591 357.267 259.591C356.794 259.591 356.379 259.716 356.023 259.966C355.67 260.212 355.396 260.564 355.199 261.023C355.002 261.477 354.903 262.015 354.903 262.636C354.903 263.273 355 263.822 355.193 264.284C355.386 264.746 355.659 265.104 356.011 265.358C356.367 265.612 356.786 265.739 357.267 265.739C357.589 265.739 357.881 265.68 358.142 265.562C358.407 265.441 358.629 265.269 358.807 265.045C358.989 264.822 359.116 264.553 359.188 264.239H360.841C360.78 264.803 360.597 265.307 360.29 265.75C359.983 266.193 359.572 266.542 359.057 266.795C358.545 267.049 357.945 267.176 357.256 267.176ZM366.732 258.273V259.636H361.964V258.273H366.732ZM363.243 256.182H364.942V264.438C364.942 264.767 364.991 265.015 365.089 265.182C365.188 265.345 365.315 265.456 365.47 265.517C365.629 265.574 365.802 265.602 365.987 265.602C366.124 265.602 366.243 265.593 366.345 265.574C366.447 265.555 366.527 265.54 366.584 265.528L366.891 266.932C366.792 266.97 366.652 267.008 366.47 267.045C366.288 267.087 366.061 267.11 365.788 267.114C365.341 267.121 364.925 267.042 364.538 266.875C364.152 266.708 363.839 266.451 363.601 266.102C363.362 265.754 363.243 265.316 363.243 264.79V256.182Z" fill="#304849"/>
</svg>
