<svg width="152" height="42" viewBox="0 0 152 42" fill="none" xmlns="http://www.w3.org/2000/svg">
<path d="M53.9261 20.0625V26.625H52.25V12.0796H53.9261V17.4205H54.0682C54.3239 16.8571 54.7074 16.4096 55.2188 16.0782C55.7348 15.742 56.4214 15.5739 57.2784 15.5739C58.0218 15.5739 58.6728 15.7231 59.2315 16.0214C59.7902 16.3149 60.2235 16.7671 60.5312 17.3779C60.8438 17.9839 61 18.7557 61 19.6932V26.625H59.3239V19.8069C59.3239 18.9404 59.099 18.2704 58.6491 17.7969C58.2041 17.3187 57.5862 17.0796 56.7955 17.0796C56.2462 17.0796 55.7538 17.1956 55.3182 17.4276C54.8873 17.6596 54.5464 17.9981 54.2955 18.4432C54.0492 18.8883 53.9261 19.4281 53.9261 20.0625Z" fill="#304849"/>
<path d="M64.7553 30.716C64.4712 30.716 64.2179 30.6923 63.9954 30.6449C63.7728 30.6023 63.619 30.5597 63.5337 30.5171L63.9599 29.0398C64.3671 29.144 64.7269 29.1819 65.0394 29.1535C65.3519 29.125 65.6289 28.9854 65.8704 28.7344C66.1166 28.4882 66.3415 28.0881 66.5451 27.5341L66.8576 26.6819L62.8235 15.716H64.6417L67.6531 24.4091H67.7667L70.7781 15.716H72.5962L67.9656 28.216C67.7572 28.7794 67.4992 29.2458 67.1914 29.6151C66.8836 29.9892 66.5262 30.2661 66.119 30.4461C65.7165 30.626 65.262 30.716 64.7553 30.716Z" fill="#304849"/>
<path d="M74.8086 30.716V15.716H76.4279V17.4489H76.6268C76.7499 17.2595 76.9203 17.018 77.1381 16.7245C77.3607 16.4262 77.6779 16.161 78.0898 15.929C78.5065 15.6923 79.07 15.5739 79.7802 15.5739C80.6987 15.5739 81.5084 15.8035 82.2092 16.2628C82.9099 16.7221 83.4568 17.3732 83.8498 18.216C84.2428 19.0588 84.4393 20.0531 84.4393 21.1989C84.4393 22.3542 84.2428 23.3556 83.8498 24.2032C83.4568 25.046 82.9123 25.6994 82.2163 26.1634C81.5202 26.6227 80.7177 26.8523 79.8086 26.8523C79.1078 26.8523 78.5468 26.7363 78.1254 26.5043C77.704 26.2676 77.3796 26 77.1523 25.7017C76.9251 25.3987 76.7499 25.1478 76.6268 24.9489H76.4847V30.716H74.8086ZM76.4563 21.1705C76.4563 21.9944 76.5771 22.7212 76.8185 23.3509C77.06 23.9759 77.4128 24.466 77.8768 24.8211C78.3408 25.1714 78.909 25.3466 79.5813 25.3466C80.2821 25.3466 80.8668 25.162 81.3356 24.7927C81.8091 24.4186 82.1642 23.9167 82.4009 23.287C82.6424 22.6525 82.7631 21.947 82.7631 21.1705C82.7631 20.4035 82.6448 19.7122 82.408 19.0966C82.176 18.4764 81.8233 17.9863 81.3498 17.6265C80.881 17.2619 80.2915 17.0796 79.5813 17.0796C78.8995 17.0796 78.3266 17.2524 77.8626 17.5981C77.3986 17.939 77.0482 18.4172 76.8114 19.0327C76.5747 19.6435 76.4563 20.3561 76.4563 21.1705Z" fill="#304849"/>
<path d="M91.57 26.8523C90.5188 26.8523 89.6121 26.6203 88.8498 26.1563C88.0922 25.6875 87.5075 25.0341 87.0955 24.1961C86.6883 23.3533 86.4847 22.3732 86.4847 21.2557C86.4847 20.1383 86.6883 19.1535 87.0955 18.3012C87.5075 17.4442 88.0804 16.7766 88.8143 16.2983C89.5529 15.8154 90.4147 15.5739 91.3995 15.5739C91.9677 15.5739 92.5288 15.6686 93.0827 15.858C93.6367 16.0474 94.141 16.3552 94.5955 16.7813C95.0501 17.2027 95.4123 17.7614 95.6822 18.4574C95.9521 19.1535 96.087 20.0105 96.087 21.0285V21.7387H87.6779V20.2898H94.3825C94.3825 19.6743 94.2593 19.125 94.0131 18.6421C93.7717 18.1591 93.426 17.778 92.9762 17.4986C92.5311 17.2193 92.0056 17.0796 91.3995 17.0796C90.7319 17.0796 90.1542 17.2453 89.6665 17.5767C89.1836 17.9035 88.8119 18.3296 88.5515 18.8552C88.2911 19.3807 88.1609 19.9442 88.1609 20.5455V21.5114C88.1609 22.3353 88.3029 23.0337 88.587 23.6066C88.8758 24.1748 89.2759 24.608 89.7873 24.9063C90.2987 25.1999 90.8929 25.3466 91.57 25.3466C92.0103 25.3466 92.408 25.2851 92.7631 25.162C93.123 25.0341 93.4331 24.8447 93.6935 24.5938C93.954 24.3381 94.1552 24.0209 94.2972 23.6421L95.9165 24.0966C95.7461 24.6459 95.4596 25.1288 95.0572 25.5455C94.6547 25.9574 94.1576 26.2794 93.5657 26.5114C92.9738 26.7387 92.3086 26.8523 91.57 26.8523Z" fill="#304849"/>
<path d="M98.6367 26.625V15.716H100.256V17.3637H100.37C100.569 16.8239 100.928 16.3859 101.449 16.0498C101.97 15.7136 102.557 15.5455 103.211 15.5455C103.334 15.5455 103.488 15.5479 103.672 15.5526C103.857 15.5573 103.997 15.5644 104.091 15.5739V17.2785C104.034 17.2642 103.904 17.2429 103.701 17.2145C103.502 17.1814 103.291 17.1648 103.069 17.1648C102.538 17.1648 102.065 17.2761 101.648 17.4986C101.236 17.7164 100.909 18.0195 100.668 18.4077C100.431 18.7912 100.313 19.2292 100.313 19.7216V26.625H98.6367Z" fill="#304849"/>
<path d="M110.178 26.8523C109.155 26.8523 108.275 26.6108 107.536 26.1279C106.797 25.6449 106.229 24.9797 105.831 24.1321C105.434 23.2846 105.235 22.3163 105.235 21.2273C105.235 20.1194 105.438 19.1416 105.846 18.2941C106.257 17.4418 106.83 16.7766 107.564 16.2983C108.303 15.8154 109.165 15.5739 110.15 15.5739C110.917 15.5739 111.608 15.716 112.223 16C112.839 16.2841 113.343 16.6819 113.736 17.1932C114.129 17.7046 114.373 18.3012 114.468 18.983H112.792C112.664 18.4858 112.38 18.0455 111.939 17.662C111.504 17.2737 110.917 17.0796 110.178 17.0796C109.525 17.0796 108.952 17.25 108.459 17.591C107.971 17.9271 107.59 18.403 107.316 19.0185C107.046 19.6293 106.911 20.3466 106.911 21.1705C106.911 22.0133 107.043 22.7472 107.309 23.3722C107.578 23.9972 107.957 24.4825 108.445 24.8282C108.937 25.1738 109.515 25.3466 110.178 25.3466C110.614 25.3466 111.009 25.2709 111.364 25.1194C111.719 24.9678 112.02 24.75 112.266 24.466C112.512 24.1819 112.687 23.841 112.792 23.4432H114.468C114.373 24.0872 114.139 24.6672 113.765 25.1833C113.395 25.6946 112.905 26.1018 112.294 26.4049C111.688 26.7032 110.983 26.8523 110.178 26.8523Z" fill="#304849"/>
<path d="M121.492 26.8523C120.441 26.8523 119.534 26.6203 118.772 26.1563C118.014 25.6875 117.429 25.0341 117.017 24.1961C116.61 23.3533 116.407 22.3732 116.407 21.2557C116.407 20.1383 116.61 19.1535 117.017 18.3012C117.429 17.4442 118.002 16.7766 118.736 16.2983C119.475 15.8154 120.337 15.5739 121.321 15.5739C121.89 15.5739 122.451 15.6686 123.005 15.858C123.559 16.0474 124.063 16.3552 124.517 16.7813C124.972 17.2027 125.334 17.7614 125.604 18.4574C125.874 19.1535 126.009 20.0105 126.009 21.0285V21.7387H117.6V20.2898H124.304C124.304 19.6743 124.181 19.125 123.935 18.6421C123.694 18.1591 123.348 17.778 122.898 17.4986C122.453 17.2193 121.927 17.0796 121.321 17.0796C120.654 17.0796 120.076 17.2453 119.588 17.5767C119.105 17.9035 118.734 18.3296 118.473 18.8552C118.213 19.3807 118.083 19.9442 118.083 20.5455V21.5114C118.083 22.3353 118.225 23.0337 118.509 23.6066C118.798 24.1748 119.198 24.608 119.709 24.9063C120.221 25.1999 120.815 25.3466 121.492 25.3466C121.932 25.3466 122.33 25.2851 122.685 25.162C123.045 25.0341 123.355 24.8447 123.615 24.5938C123.876 24.3381 124.077 24.0209 124.219 23.6421L125.838 24.0966C125.668 24.6459 125.382 25.1288 124.979 25.5455C124.577 25.9574 124.079 26.2794 123.488 26.5114C122.896 26.7387 122.23 26.8523 121.492 26.8523Z" fill="#304849"/>
<path d="M128.559 26.625V15.716H130.178V17.3637H130.292C130.49 16.8239 130.85 16.3859 131.371 16.0498C131.892 15.7136 132.479 15.5455 133.132 15.5455C133.256 15.5455 133.409 15.5479 133.594 15.5526C133.779 15.5573 133.918 15.5644 134.013 15.5739V17.2785C133.956 17.2642 133.826 17.2429 133.623 17.2145C133.424 17.1814 133.213 17.1648 132.99 17.1648C132.46 17.1648 131.987 17.2761 131.57 17.4986C131.158 17.7164 130.831 18.0195 130.59 18.4077C130.353 18.7912 130.235 19.2292 130.235 19.7216V26.625H128.559Z" fill="#304849"/>
<path d="M141.428 15.716V17.1364H135.775V15.716H141.428ZM137.422 13.1023H139.098V23.5C139.098 23.9735 139.167 24.3286 139.304 24.5654C139.446 24.7974 139.626 24.9536 139.844 25.0341C140.067 25.1099 140.301 25.1478 140.547 25.1478C140.732 25.1478 140.883 25.1383 141.002 25.1194C141.12 25.0957 141.215 25.0767 141.286 25.0625L141.627 26.5682C141.513 26.6108 141.355 26.6535 141.151 26.6961C140.947 26.7434 140.689 26.7671 140.377 26.7671C139.903 26.7671 139.439 26.6653 138.985 26.4617C138.535 26.2581 138.161 25.948 137.863 25.5313C137.569 25.1146 137.422 24.5891 137.422 23.9546V13.1023Z" fill="#304849"/>
<path d="M151.481 18.1591L149.975 18.5853C149.881 18.3343 149.741 18.0905 149.556 17.8537C149.377 17.6123 149.13 17.4134 148.818 17.2571C148.505 17.1009 148.105 17.0228 147.618 17.0228C146.95 17.0228 146.394 17.1767 145.949 17.4844C145.508 17.7874 145.288 18.1733 145.288 18.6421C145.288 19.0588 145.44 19.3878 145.743 19.6293C146.046 19.8708 146.519 20.072 147.163 20.233L148.782 20.6307C149.758 20.8675 150.484 21.2297 150.963 21.7174C151.441 22.2003 151.68 22.823 151.68 23.5853C151.68 24.2103 151.5 24.769 151.14 25.2614C150.785 25.7538 150.288 26.1421 149.649 26.4262C149.01 26.7103 148.266 26.8523 147.419 26.8523C146.306 26.8523 145.385 26.6108 144.656 26.1279C143.927 25.6449 143.465 24.9394 143.271 24.0114L144.862 23.6137C145.013 24.2008 145.3 24.6411 145.721 24.9347C146.147 25.2283 146.704 25.375 147.39 25.375C148.172 25.375 148.792 25.2093 149.251 24.8779C149.715 24.5417 149.947 24.1392 149.947 23.6705C149.947 23.2917 149.815 22.9745 149.549 22.7188C149.284 22.4584 148.877 22.2642 148.328 22.1364L146.51 21.7103C145.511 21.4735 144.777 21.1066 144.308 20.6094C143.844 20.1075 143.612 19.4802 143.612 18.7273C143.612 18.1118 143.785 17.5673 144.13 17.0938C144.481 16.6203 144.957 16.2486 145.558 15.9787C146.164 15.7089 146.851 15.5739 147.618 15.5739C148.697 15.5739 149.545 15.8107 150.16 16.2841C150.78 16.7576 151.221 17.3826 151.481 18.1591Z" fill="#304849"/>
<path d="M40.9969 20.9984C40.9969 23.2826 34.4703 24.2482 33.6455 26.2355C32.7925 28.2947 36.6916 33.5881 35.1389 35.1411C33.5892 36.691 28.2936 32.7913 26.2347 33.6475C24.2508 34.4724 23.2823 41 20.9984 41C18.7146 41 17.7492 34.4724 15.7622 33.6475C13.7751 32.8225 8.41076 36.6941 6.858 35.1411C5.30524 33.5881 9.20745 28.2947 8.3514 26.2355C7.5266 24.2513 1 23.2826 1 20.9984C1 18.7142 7.5266 17.7487 8.3514 15.7613C9.17621 13.774 5.30524 8.4088 6.858 6.85579C8.41076 5.30279 13.7033 9.20561 15.7622 8.34943C17.7523 7.52762 18.7177 1 21.0016 1C23.2854 1 24.2508 7.52762 26.2378 8.35255C28.2249 9.17749 33.5892 5.30591 35.142 6.85892C36.6948 8.41192 32.7925 13.7053 33.6486 15.7645C34.4734 17.7487 41 18.7174 41 21.0016L40.9969 20.9984Z" stroke="#304849" stroke-width="1.5"/>
<path d="M33.4298 20.9985C33.4298 22.5265 30.871 23.5326 30.3211 24.8575C29.7494 26.2324 30.8273 28.751 29.79 29.7884C28.7528 30.8258 26.2377 29.7478 24.8599 30.3196C23.4821 30.8914 22.5261 33.4287 21.0015 33.4287C19.4768 33.4287 18.4677 30.8696 17.143 30.3196C15.8183 29.7696 13.2501 30.8258 12.2129 29.7884C11.1756 28.751 12.2535 26.2355 11.6818 24.8575C11.11 23.4795 8.57312 22.5233 8.57312 20.9985C8.57312 19.4736 11.1319 18.4643 11.6818 17.1394C12.2316 15.8145 11.1756 13.2459 12.2129 12.2085C13.2501 11.1711 15.7652 12.2491 17.143 11.6773C18.5208 11.1055 19.4768 8.56818 21.0015 8.56818C22.5261 8.56818 23.5352 11.1274 24.8599 11.6773C26.1846 12.2273 28.7528 11.1711 29.79 12.2085C30.8273 13.2459 29.7494 15.7614 30.3211 17.1394C30.8929 18.5174 33.4298 19.4736 33.4298 20.9985V20.9985Z" stroke="#304849" stroke-width="1.5"/>
<path d="M27.9531 20.9984C27.9531 21.9421 27.7656 22.8389 27.4251 23.6607C27.0845 24.4825 26.5565 25.2762 25.916 25.9168C25.2756 26.5574 24.5101 27.073 23.6603 27.4261C22.8105 27.7792 21.942 27.9541 20.9984 27.9541C20.0549 27.9541 19.1583 27.7667 18.3366 27.4261C17.5149 27.0855 16.7213 26.5574 16.0808 25.9168C15.4404 25.2762 14.9249 24.5107 14.5718 23.6607C14.2188 22.8108 14.0438 21.9421 14.0438 20.9984C14.0438 20.0548 14.2313 19.1579 14.5718 18.3361C14.9124 17.5143 15.4404 16.7206 16.0808 16.0801C16.7213 15.4395 17.4868 14.9239 18.3366 14.5708C19.1864 14.2177 20.0549 14.0427 20.9984 14.0427C21.942 14.0427 22.8386 14.2302 23.6603 14.5708C24.482 14.9114 25.2756 15.4395 25.916 16.0801C26.5565 16.7206 27.072 17.4862 27.4251 18.3361C27.7781 19.1861 27.9531 20.0548 27.9531 20.9984Z" stroke="#304849" stroke-width="1.5"/>
</svg>
