<svg width="432" height="221" viewBox="0 0 432 221" fill="none" xmlns="http://www.w3.org/2000/svg">
<path d="M80.7434 8.47375C80.4571 8.94603 80.6078 9.56098 81.0801 9.84728L88.7765 14.5127C89.2488 14.799 89.8637 14.6482 90.15 14.1759C90.4363 13.7036 90.2855 13.0887 89.8132 12.8024L82.972 8.65536L87.1191 1.81415C87.4054 1.34187 87.2546 0.726916 86.7823 0.440623C86.31 0.154329 85.6951 0.305107 85.4088 0.777393L80.7434 8.47375ZM179.23 34.4401C152.355 8.52073 115.208 -0.278041 81.3604 8.0209L81.8366 9.96336C115.042 1.82184 151.479 10.4542 177.841 35.8796L179.23 34.4401Z" fill="#426A5A"/>
<path d="M5.06416 81.3516C5.33021 81.8356 5.93823 82.0123 6.42221 81.7462L14.3091 77.4108C14.7931 77.1447 14.9698 76.5367 14.7038 76.0527C14.4377 75.5688 13.8297 75.3921 13.3457 75.6581L6.3351 79.5119L2.48135 72.5013C2.21531 72.0173 1.60729 71.8406 1.12331 72.1067C0.639328 72.3727 0.462656 72.9807 0.728702 73.4647L5.06416 81.3516ZM76.5908 8.98027C60.1239 13.7651 44.597 22.6379 31.6174 35.6175L33.0317 37.0317C45.7666 24.2968 60.9966 15.5942 77.1489 10.9008L76.5908 8.98027ZM31.6174 35.6175C18.6379 48.5971 9.765 64.124 4.98021 80.5909L6.90077 81.1489C11.5942 64.9967 20.2967 49.7667 33.0317 37.0317L31.6174 35.6175Z" fill="#426A5A"/>
<path d="M31.1418 183.535C31.694 183.545 32.1497 183.106 32.1597 182.553L32.3224 173.555C32.3324 173.003 31.8929 172.547 31.3407 172.537C30.7885 172.527 30.3327 172.967 30.3228 173.519L30.1781 181.517L22.1794 181.373C21.6272 181.363 21.1715 181.802 21.1615 182.354C21.1515 182.907 21.591 183.362 22.1432 183.372L31.1418 183.535ZM4.0209 85.3604C-4.27804 119.208 4.52073 156.355 30.4401 183.23L31.8796 181.841C6.45416 155.479 -2.17816 119.042 5.96336 85.8366L4.0209 85.3604Z" fill="#426A5A"/>
<path d="M207.782 138.705C207.514 138.222 206.906 138.047 206.423 138.315L198.549 142.673C198.065 142.941 197.891 143.549 198.158 144.033C198.426 144.516 199.034 144.691 199.517 144.423L206.516 140.549L210.391 147.548C210.658 148.031 211.267 148.206 211.75 147.939C212.233 147.671 212.408 147.063 212.141 146.579L207.782 138.705ZM136.26 211.866C152.728 207.028 168.255 198.056 181.234 184.933L179.812 183.527C167.076 196.404 151.847 205.203 135.696 209.948L136.26 211.866ZM181.234 184.933C194.213 171.81 203.084 156.112 207.868 139.466L205.946 138.913C201.252 155.248 192.548 170.649 179.812 183.527L181.234 184.933Z" fill="#426A5A"/>
<path d="M132.104 212.374C132.391 211.902 132.24 211.287 131.768 211L124.071 206.334C123.599 206.048 122.984 206.199 122.698 206.671C122.412 207.143 122.562 207.758 123.035 208.045L129.876 212.192L125.728 219.033C125.442 219.505 125.592 220.12 126.065 220.407C126.537 220.693 127.152 220.542 127.438 220.07L132.104 212.374ZM33.6179 186.407C60.4817 212.327 97.6293 221.126 131.487 212.827L131.011 210.884C97.7949 219.026 61.3581 210.393 35.0066 184.968L33.6179 186.407Z" fill="#426A5A"/>
<path d="M393.706 36.1597C394.258 36.1497 394.698 35.694 394.688 35.1418L394.525 26.1432C394.515 25.591 394.059 25.1515 393.507 25.1615C392.955 25.1715 392.515 25.6272 392.525 26.1794L392.67 34.1781L384.671 34.3228C384.119 34.3327 383.679 34.7885 383.689 35.3407C383.699 35.8929 384.155 36.3324 384.707 36.3224L393.706 36.1597ZM394.382 34.4401C367.508 8.52073 330.36 -0.278041 296.513 8.0209L296.989 9.96336C330.195 1.82184 366.631 10.4542 392.994 35.8796L394.382 34.4401Z" fill="#426A5A"/>
<path d="M293.685 10.4249C293.953 9.94165 293.778 9.33312 293.295 9.06565L285.421 4.70696C284.937 4.43949 284.329 4.61437 284.061 5.09757C283.794 5.58076 283.969 6.1893 284.452 6.45677L291.451 10.3312L287.577 17.3304C287.309 17.8136 287.484 18.4221 287.967 18.6896C288.451 18.9571 289.059 18.7822 289.327 18.299L293.685 10.4249ZM292.534 8.97945C275.888 13.7633 260.19 22.6348 247.067 35.6136L248.473 37.0356C261.351 24.2999 276.752 15.596 293.087 10.9017L292.534 8.97945ZM247.067 35.6136C233.944 48.5925 224.972 64.1197 220.134 80.588L222.052 81.1518C226.797 65.001 235.596 49.7712 248.473 37.0356L247.067 35.6136Z" fill="#426A5A"/>
<path d="M350.252 210.428C349.988 210.913 350.166 211.52 350.651 211.785L358.551 216.097C359.036 216.361 359.643 216.183 359.908 215.698C360.172 215.213 359.994 214.606 359.509 214.341L352.487 210.508L356.32 203.486C356.584 203.002 356.406 202.394 355.921 202.129C355.436 201.865 354.829 202.043 354.564 202.528L350.252 210.428ZM351.412 211.866C367.88 207.028 383.407 198.056 396.386 184.933L394.964 183.527C382.229 196.404 366.999 205.203 350.848 209.948L351.412 211.866ZM396.386 184.933C409.365 171.81 418.237 156.112 423.021 139.466L421.098 138.913C416.404 155.248 407.7 170.649 394.964 183.527L396.386 184.933Z" fill="#426A5A"/>
<path d="M422.149 135.767C422.435 136.24 423.05 136.391 423.522 136.104L431.22 131.441C431.692 131.155 431.843 130.54 431.557 130.068C431.271 129.595 430.656 129.444 430.183 129.73L423.341 133.876L419.196 127.033C418.91 126.561 418.295 126.41 417.822 126.696C417.35 126.982 417.199 127.597 417.485 128.07L422.149 135.767ZM423.975 135.487C432.284 101.64 423.475 64.4921 397.56 37.6181L396.12 39.0064C421.542 65.3686 430.183 101.806 422.033 135.011L423.975 135.487Z" fill="#426A5A"/>
<path d="M249.447 184.688C248.895 184.698 248.455 185.153 248.465 185.706L248.626 194.704C248.636 195.256 249.091 195.696 249.644 195.686C250.196 195.676 250.635 195.221 250.626 194.668L250.482 186.67L258.481 186.527C259.033 186.517 259.473 186.061 259.463 185.509C259.453 184.957 258.998 184.517 258.445 184.527L249.447 184.688ZM248.77 186.407C275.634 212.327 312.782 221.126 346.64 212.827L346.163 210.884C312.947 219.026 276.511 210.393 250.159 184.968L248.77 186.407Z" fill="#426A5A"/>
<circle cx="105" cy="110" r="47" stroke="#997B66" stroke-width="2"/>
<circle cx="322" cy="110" r="47" stroke="#3AB7A8" stroke-width="2"/>
</svg>
